<svg width="80" height="80" viewBox="0 0 80 80" fill="none" xmlns="http://www.w3.org/2000/svg">
<g clip-path="url(#clip0_4001_2318)">
<path d="M68.0364 73.5205C68.0611 73.7619 68.4414 73.7642 68.4166 73.5211C68.3091 72.4683 68.9544 71.4787 69.9689 71.1579C70.7652 70.9062 71.5682 71.2045 71.8047 72.0491C71.9089 72.4215 71.9126 72.7756 71.8104 73.1159C71.8073 73.1159 71.8044 73.1151 71.8012 73.1151C71.4528 73.1095 71.1199 73.2028 70.8029 73.3406C70.5599 73.4462 70.2211 73.6134 70.1706 73.9053C70.1128 74.2399 70.4991 74.4612 70.7799 74.5029C71.1268 74.5545 71.4443 74.3588 71.6715 74.1122C71.8392 73.9302 71.967 73.732 72.0627 73.5234C72.1142 73.532 72.1658 73.5395 72.2167 73.5527C72.9116 73.732 73.5073 74.3151 73.6043 75.0418C73.6903 75.6852 73.1899 76.0708 72.603 76.1874C72.4503 75.9747 72.2606 75.7906 72.0409 75.6653C71.602 75.4147 71.1357 75.5261 70.9577 76.0193C70.9369 76.0769 70.958 76.1649 71.0063 76.2043C71.3959 76.5221 71.91 76.6388 72.4092 76.5945C72.563 76.8715 72.6444 77.1915 72.5985 77.5028C72.5202 78.0324 72.0541 78.5379 71.5307 78.6515C70.4758 78.8804 69.4437 77.7544 69.1357 76.8573C69.0566 76.627 68.6893 76.7259 68.769 76.9576C69.0241 77.7008 69.572 78.3707 70.257 78.7595C70.8321 79.0858 71.5431 79.1845 72.1227 78.8121C72.7119 78.4337 73.0762 77.7533 72.9668 77.0532C72.9388 76.8745 72.8802 76.6956 72.8005 76.5246C72.9207 76.4923 73.0388 76.4538 73.1504 76.4024C73.9253 76.0455 74.1624 75.2572 73.8408 74.4877C73.5546 73.8035 72.9124 73.3061 72.1916 73.1615C72.2708 72.8488 72.2817 72.5174 72.2225 72.1763C72.1281 71.6328 71.8337 71.1115 71.3254 70.861C70.8622 70.6329 70.316 70.642 69.8329 70.8034C68.6877 71.1854 67.9126 72.3094 68.0364 73.5205ZM72.1353 76.2226C71.8595 76.2108 71.5945 76.1402 71.3859 76.0107C71.5746 75.7675 71.9487 76.0318 72.1353 76.2226ZM71.6422 73.5048C71.6279 73.5298 71.6157 73.555 71.6003 73.5797C71.4601 73.8038 71.2418 74.0838 70.9613 74.1272C70.828 74.1479 70.706 74.1002 70.5977 74.0249C70.5178 73.9696 70.5378 73.9625 70.6016 73.896C70.7704 73.7197 71.0716 73.6281 71.2993 73.5628C71.412 73.5305 71.5268 73.5139 71.6422 73.5048Z" fill="black"/>
<path d="M67.745 74.4714H67.7445L61.054 74.4594C60.9409 74.4589 60.8493 74.3673 60.8496 74.2542C60.8501 74.1414 60.9416 74.0498 61.0543 74.0498H61.0548L67.7453 74.0618C67.8585 74.0623 67.95 74.1539 67.9497 74.267C67.9492 74.3798 67.8577 74.4714 67.745 74.4714Z" fill="black"/>
<path d="M67.632 76.2732H67.6315L63.4407 76.2655C63.3276 76.2651 63.2359 76.1735 63.2363 76.0603C63.2368 75.9475 63.3284 75.856 63.441 75.856H63.4415L67.6323 75.8636C67.7454 75.8641 67.837 75.9557 67.8367 76.0688C67.8364 76.1816 67.7447 76.2732 67.632 76.2732Z" fill="black"/>
<path d="M24.1897 49.5069C17.1478 57.056 13.7998 67.093 14.978 77.3849C15.2246 79.5395 18.6045 79.3582 18.3562 77.1896C17.274 67.7352 20.2432 58.6972 26.7167 51.7576C28.2048 50.1618 25.6757 47.9137 24.1897 49.5069Z" fill="black"/>
<path d="M18.4649 74.9518C18.4649 74.9518 20.6217 73.2081 16.3151 73.0665C11.6977 72.9148 14.6017 74.8611 14.6017 74.8611L13.9064 75.2489C13.9064 75.2489 8.9498 71.2983 7.06512 75.1778C5.18028 79.0573 10.5421 79.7625 13.831 79.844C17.12 79.9252 20.6459 80.6978 18.4649 74.9518Z" fill="#FF558B"/>
<path d="M16.1484 80.0003C15.7149 80.0003 15.2584 79.9797 14.7951 79.9589C14.4742 79.9444 14.1501 79.9298 13.8282 79.9219C11.2278 79.8575 7.91519 79.4309 6.8998 77.7634C6.46492 77.0491 6.49664 76.1675 6.99387 75.1435C7.44078 74.2237 8.09724 73.6601 8.94481 73.4679C10.0955 73.2074 11.398 73.6899 12.2882 74.1412C13.1142 74.56 13.7483 75.0296 13.9127 75.1554L14.4549 74.8529C14.1844 74.6524 13.4899 74.0808 13.6439 73.6029C13.7946 73.1352 14.6684 72.9352 16.3168 72.9883C17.9537 73.0422 18.8734 73.3374 19.0508 73.8664C19.2117 74.3461 18.7115 74.8377 18.5565 74.9755C19.3183 77.0008 19.4171 78.3609 18.8584 79.1327C18.3409 79.8476 17.3295 80.0003 16.1484 80.0003ZM9.63471 73.5502C9.41219 73.5502 9.1928 73.572 8.97934 73.6203C8.18037 73.8014 7.5597 74.3369 7.13466 75.2116C6.66197 76.1847 6.62775 77.0158 7.0334 77.682C7.47563 78.4081 8.94684 79.6446 13.8322 79.7654C14.1551 79.7736 14.4803 79.7882 14.8022 79.8026C16.4846 79.8783 18.0738 79.95 18.7318 79.0407C19.2619 78.3086 19.1505 76.9799 18.3909 74.9794L18.3709 74.9265L18.4148 74.891C18.4212 74.8858 19.0539 74.3662 18.9025 73.9157C18.7961 73.5993 18.2604 73.2085 16.3115 73.1444C14.3843 73.0808 13.8782 73.3848 13.7924 73.6506C13.6675 74.0379 14.3649 74.6086 14.6442 74.7958L14.7501 74.8668L13.898 75.3423L13.8569 75.3096C13.8324 75.2902 11.6228 73.5502 9.63471 73.5502Z" fill="black"/>
<path d="M17.0164 75.3119C16.8781 75.3119 16.732 75.3055 16.5781 75.2906L16.5931 75.135C17.7094 75.2431 18.4216 74.8859 18.4286 74.8823L18.4997 75.0215C18.4734 75.035 17.92 75.3119 17.0164 75.3119Z" fill="black"/>
<path d="M15.3423 75.1702C15.2656 75.1702 15.0033 75.1513 14.5664 74.9305L14.6369 74.791C15.1053 75.0279 15.3497 75.0141 15.3525 75.0138L15.3656 75.1695C15.3639 75.1696 15.3561 75.1702 15.3423 75.1702Z" fill="black"/>
<path d="M13.9113 75.2432C14.0738 75.3204 14.2184 75.4168 14.3562 75.52C14.4952 75.6221 14.6238 75.7354 14.7499 75.8511C14.8727 75.9705 14.9935 76.0921 15.1035 76.2249C15.2148 76.3566 15.3196 76.4949 15.4065 76.6524L15.3957 76.6638L14.6427 75.9649L13.9004 75.2546L13.9113 75.2432Z" fill="black"/>
<path d="M13.9139 75.248C13.9791 75.3859 14.018 75.5254 14.0475 75.6657C14.0786 75.8059 14.0944 75.9471 14.1067 76.0885C14.1142 76.2304 14.1186 76.3724 14.1075 76.5155C14.0981 76.6585 14.0794 76.8023 14.0347 76.9477L14.0191 76.9488L13.9509 76.0996L13.8984 75.2493L13.9139 75.248Z" fill="black"/>
<path d="M9.48163 74.174C9.3324 74.252 9.18552 74.3278 9.05207 74.4253C8.98175 74.467 8.91753 74.5183 8.85049 74.5636C8.78627 74.6134 8.72501 74.6665 8.66282 74.7172C8.42124 74.9289 8.20809 75.17 8.06558 75.4513C7.90948 75.7229 7.80056 76.0256 7.75884 76.345L7.73462 76.4639L7.72618 76.5851L7.70962 76.8298C7.69962 76.9944 7.71618 77.1592 7.70665 77.3302L7.69133 77.3332C7.67055 77.1671 7.64008 77.0016 7.62742 76.8347L7.62398 76.5831L7.62305 76.4573L7.63805 76.3323L7.6693 76.0823L7.73368 75.8385C7.7504 75.7555 7.78869 75.6799 7.81994 75.6019C7.85197 75.5241 7.8826 75.4455 7.92917 75.3749C8.09199 75.0803 8.32092 74.8237 8.58828 74.6206C8.85658 74.4189 9.15645 74.2585 9.47741 74.1587L9.48163 74.174Z" fill="white"/>
<path d="M53.4141 68.3092C50.8086 69.2246 48.2281 70.2145 45.6054 71.081C43.1247 71.9006 40.2098 72.718 37.5847 72.1454C31.1039 70.7319 36.5886 62.9702 38.55 59.8296C39.7069 57.9773 36.7805 56.2766 35.628 58.1216C32.8434 62.5801 27.774 70.6226 34.2001 74.4326C40.2473 78.0179 48.4872 73.6191 54.3136 71.5721C56.3547 70.855 55.4762 67.5846 53.4141 68.3092Z" fill="black"/>
<path d="M49.9781 69.087C49.9781 69.087 47.5475 67.7514 49.0474 71.7906C50.6557 76.1214 51.3571 72.6968 51.3571 72.6968L51.9794 73.1932C51.9794 73.1932 50.2003 79.2768 54.5046 79.5519C58.809 79.8269 57.4309 74.5974 56.2607 71.5228C55.0904 68.4482 54.47 64.8923 49.9781 69.087Z" fill="#FF558B"/>
<path d="M54.8196 79.6405C54.7158 79.6405 54.6092 79.6371 54.4997 79.6301C53.4795 79.5649 52.7091 79.171 52.2103 78.459C51.5331 77.4925 51.4866 76.1043 51.5671 75.1097C51.6418 74.1867 51.8365 73.4219 51.8904 73.2222L51.4049 72.835C51.3218 73.1613 51.056 74.0205 50.5555 74.059C50.0639 74.097 49.5484 73.3635 48.9744 71.8179C48.4044 70.2826 48.3292 69.3194 48.7514 68.955C49.1346 68.624 49.7789 68.9011 49.9651 68.9923C51.5507 67.5205 52.7719 66.9144 53.6984 67.1386C54.871 67.4231 55.4204 68.9597 56.002 70.5864C56.11 70.8887 56.2194 71.1942 56.3339 71.495C57.2591 73.926 58.1189 77.1536 56.9602 78.7248C56.5114 79.3332 55.7923 79.6405 54.8196 79.6405ZM51.3063 72.5564L52.0693 73.165L52.0545 73.2153C52.0448 73.2488 51.0896 76.5878 52.3383 78.3695C52.8086 79.0403 53.5392 79.4119 54.5099 79.474C55.5879 79.5419 56.3716 79.2597 56.8344 78.632C57.339 77.9477 57.9261 76.1177 56.1876 71.5507C56.0729 71.2488 55.9633 70.9423 55.8548 70.639C55.2877 69.0531 54.7521 67.5552 53.6613 67.2903C52.7828 67.0772 51.5954 67.6838 50.0315 69.1439L49.9903 69.1825L49.9407 69.1553C49.9334 69.1514 49.2132 68.7628 48.8535 69.0733C48.6008 69.2916 48.4422 69.9355 49.121 71.7635C49.792 73.5707 50.269 73.9279 50.5436 73.903C50.9491 73.8719 51.2132 73.0103 51.2808 72.6811L51.3063 72.5564Z" fill="black"/>
<path d="M50.857 70.7494C50.5352 69.6796 49.9338 69.1514 49.9277 69.1463L50.0296 69.0278C50.0555 69.0502 50.6709 69.5878 51.0065 70.7044L50.857 70.7494Z" fill="black"/>
<path d="M51.4355 72.7034L51.2798 72.6909C51.3217 72.1666 51.2159 71.9462 51.2148 71.9441L51.3541 71.873C51.3592 71.883 51.4816 72.1271 51.4355 72.7034Z" fill="black"/>
<path d="M51.9727 73.1903C51.9825 73.0106 52.017 72.8404 52.0605 72.6736C52.1023 72.5062 52.1584 72.3443 52.2178 72.1837C52.2817 72.0248 52.3486 71.8671 52.4298 71.7148C52.5095 71.562 52.598 71.4125 52.7106 71.2725L52.7252 71.2781L52.3634 72.2398L51.9872 73.1959L51.9727 73.1903Z" fill="black"/>
<path d="M51.9766 73.1865C52.0794 73.074 52.1937 72.9851 52.3125 72.9047C52.4305 72.8229 52.5552 72.7549 52.6814 72.6897C52.8098 72.6291 52.9397 72.5713 53.0762 72.5274C53.2122 72.4819 53.3522 72.4447 53.5039 72.4312L53.5108 72.4452L52.7506 72.8299L51.9834 73.2005L51.9766 73.1865Z" fill="black"/>
<path d="M52.6609 77.6953C52.7897 77.8039 52.9155 77.9111 53.0561 77.9978C53.1213 78.0471 53.193 78.0872 53.2605 78.1319C53.331 78.1725 53.4033 78.2089 53.4738 78.2475C53.7612 78.391 54.0651 78.4969 54.3795 78.5223C54.69 78.5638 55.0114 78.5501 55.3227 78.4677L55.4419 78.4451L55.5573 78.4069L55.7901 78.3296C55.9462 78.2765 56.0925 78.1988 56.2542 78.1427L56.2628 78.1558C56.1168 78.2379 55.9753 78.3288 55.8257 78.4038L55.5941 78.5023L55.478 78.5509L55.3566 78.5843L55.1135 78.6501L54.8635 78.6829C54.7805 78.6988 54.6959 78.6921 54.6119 78.6926C54.5277 78.6924 54.4434 78.6938 54.3604 78.6774C54.0262 78.6382 53.702 78.5235 53.4127 78.353C53.1244 78.1811 52.8625 77.9642 52.6484 77.705L52.6609 77.6953Z" fill="white"/>
<path d="M71.4591 32.6474C71.3771 32.2274 70.7434 32.4394 70.8249 32.8568C71.1288 34.4144 71.3688 36.0087 71.2435 37.5997C71.1265 39.0852 70.3192 40.3158 69.3844 41.4329C68.4769 42.5175 67.5724 43.5542 66.9832 44.8595C66.4292 46.0864 66.2193 47.5248 66.38 48.8602C66.5597 50.3546 67.0944 51.7856 67.481 53.2331C67.8895 54.7624 67.9864 56.2457 67.7337 57.8114C67.5223 59.1214 66.9844 60.3305 65.9385 61.1847C64.9097 62.0249 63.6526 62.3701 62.3503 62.0672C60.8327 61.7144 59.4915 60.7478 58.379 59.6906C57.7577 59.1001 57.2111 58.4354 56.7375 57.7211C56.2662 57.0103 55.958 56.2351 55.6424 55.4473C55.4835 55.0507 54.8478 55.2564 55.0081 55.6567C55.295 56.3727 55.5699 57.095 55.9696 57.7578C56.3657 58.4148 56.8419 59.0329 57.3577 59.6002C58.3396 60.6798 59.5504 61.646 60.8819 62.2569C62.1218 62.8259 63.5405 63.0839 64.847 62.5801C66.0015 62.1349 66.9753 61.303 67.6084 60.2415C68.3595 58.9818 68.5539 57.4034 68.5616 55.9602C68.5702 54.3241 68.0362 52.7684 67.596 51.2125C67.1424 49.6092 66.8149 48.0644 67.175 46.4046C67.5077 44.8709 68.4273 43.5572 69.4404 42.3933C70.4923 41.1848 71.6088 39.8109 71.8476 38.1756C72.1164 36.3353 71.8118 34.4546 71.4591 32.6474Z" fill="black"/>
<path d="M70.6501 29.4135L70.7015 31.1896L70.194 31.2043L70.1426 29.4282C70.1417 29.3938 70.1687 29.3651 70.2031 29.3641L70.586 29.3531C70.6204 29.3521 70.649 29.3791 70.6501 29.4135Z" fill="#FFD200"/>
<path d="M70.1184 31.285L70.0645 29.4306C70.0625 29.3532 70.1236 29.2885 70.2008 29.286L70.5838 29.275C70.6561 29.2729 70.7258 29.3342 70.7285 29.4112L70.7822 31.2657L70.1184 31.285ZM70.2212 29.4418L70.27 31.1242L70.6213 31.1142L70.5727 29.4317L70.2212 29.4418Z" fill="black"/>
<path d="M71.9255 29.3764L71.9769 31.1525L71.4694 31.1672L71.418 29.3911C71.4171 29.3567 71.4441 29.328 71.4785 29.327L71.8614 29.3159C71.8958 29.3149 71.9244 29.342 71.9255 29.3764Z" fill="#FFD200"/>
<path d="M71.3937 31.2479L71.3399 29.3936C71.3388 29.3562 71.3522 29.3204 71.378 29.2931C71.4037 29.2657 71.4385 29.2503 71.476 29.249L71.859 29.2379C71.9351 29.2345 72.0012 29.2972 72.0037 29.3742V29.3743L72.0575 31.2287L71.3937 31.2479ZM71.4966 29.4048L71.5454 31.0871L71.8967 31.0771L71.8479 29.3947L71.4966 29.4048Z" fill="black"/>
<path d="M69.5866 30.6949L69.6621 33.2959L72.5045 33.2134L72.429 30.6124L69.5866 30.6949Z" fill="black"/>
<path d="M69.5878 33.379L69.5078 30.6217L72.5065 30.5347L72.5865 33.2919L69.5878 33.379ZM69.6688 30.7734L69.7396 33.2182L72.4255 33.1403L72.3548 30.6956L69.6688 30.7734Z" fill="black"/>
<path d="M66.7716 45.5021C66.8095 46.259 66.2297 46.8997 65.4762 46.9373C65.4429 46.939 65.4095 46.9406 65.3761 46.939C65.3728 46.9392 65.3728 46.9392 65.3728 46.9392C65.1685 46.9326 64.9754 46.8822 64.8007 46.7973C64.7013 46.7487 64.608 46.6867 64.5241 46.6139C64.245 46.3804 64.0605 46.0319 64.0408 45.6385C64.0234 45.2917 64.1377 44.9684 64.3424 44.7175C64.5749 44.4217 64.9329 44.2266 65.3398 44.2063C66.0933 44.1687 66.734 44.7484 66.7716 45.5021Z" fill="#FFD200"/>
<path d="M65.4049 47.0177C65.3941 47.0177 65.383 47.0175 65.3721 47.0169C65.1604 47.0105 64.9572 46.96 64.7664 46.8675C64.6611 46.8159 64.5623 46.7504 64.4728 46.6726C64.1692 46.4189 63.9828 46.043 63.9628 45.6424C63.9449 45.2881 64.0582 44.9422 64.2817 44.6679C64.5348 44.346 64.9192 44.1491 65.3357 44.1284C65.7215 44.1088 66.0906 44.2409 66.3765 44.4995C66.6623 44.7581 66.8303 45.1128 66.8496 45.498C66.8894 46.2949 66.275 46.9756 65.4799 47.0153C65.4551 47.0166 65.4301 47.0177 65.4049 47.0177ZM65.4087 44.2827C65.3869 44.2827 65.3654 44.2832 65.3437 44.2843C64.9722 44.3029 64.6297 44.4782 64.4036 44.7656C64.2039 45.0108 64.1029 45.3191 64.1187 45.6344C64.1365 45.9916 64.3026 46.3268 64.5741 46.5537C64.6545 46.6236 64.7417 46.6814 64.8349 46.7268C65.0055 46.8097 65.1874 46.8548 65.3751 46.8608C65.4107 46.8628 65.4416 46.8606 65.4721 46.859C66.1812 46.8234 66.7292 46.2165 66.6936 45.5057C66.6592 44.8186 66.0892 44.2827 65.4087 44.2827Z" fill="black"/>
<path d="M71.1798 55.3946C71.2177 56.1516 70.6379 56.7922 69.8844 56.8299C69.8511 56.8316 69.8177 56.8332 69.7843 56.8316C69.781 56.8318 69.781 56.8318 69.781 56.8318C69.5767 56.8252 69.3838 56.7747 69.2089 56.6899C69.1095 56.6413 69.0162 56.5793 68.9323 56.5064C68.6532 56.273 68.4687 55.9245 68.449 55.5311C68.4316 55.1843 68.5459 54.861 68.7506 54.61C68.9831 54.3142 69.3411 54.1192 69.748 54.0989C70.5015 54.0612 71.1422 54.641 71.1798 55.3946Z" fill="#FFD200"/>
<path d="M69.8132 56.9103C69.8023 56.9103 69.7912 56.9101 69.7803 56.9095C69.5687 56.9032 69.3655 56.8528 69.1747 56.7599C69.0696 56.7087 68.9708 56.6432 68.8813 56.5655C68.5774 56.3113 68.3909 55.9355 68.3709 55.535C68.3533 55.1803 68.4666 54.8345 68.69 54.5607C68.943 54.239 69.3276 54.0419 69.744 54.021C70.1322 54.0013 70.4989 54.1336 70.7849 54.3921C71.0707 54.6507 71.2387 55.0054 71.2577 55.3909C71.2771 55.7777 71.1454 56.1482 70.8868 56.4344C70.6283 56.7207 70.2737 56.8888 69.8881 56.9079C69.8636 56.9092 69.8386 56.9103 69.8132 56.9103ZM69.8178 54.1754C69.7959 54.1754 69.774 54.1758 69.752 54.1769C69.3807 54.1957 69.0382 54.3711 68.8121 54.6584C68.6124 54.9032 68.5113 55.2114 68.527 55.5272C68.5449 55.8841 68.711 56.2193 68.9827 56.4465C69.0632 56.5162 69.1504 56.5741 69.2433 56.6195C69.414 56.7024 69.5959 56.7476 69.7835 56.7535C69.8192 56.7554 69.8501 56.7534 69.8806 56.7518C70.2244 56.7346 70.5406 56.5848 70.771 56.3296C71.0018 56.0743 71.1191 55.7436 71.1019 55.3986V55.3984C71.0847 55.055 70.935 54.7385 70.68 54.508C70.4416 54.2921 70.1375 54.1754 69.8178 54.1754Z" fill="black"/>
<path d="M64.0763 60.7735C64.1141 61.5305 63.5344 62.1711 62.7809 62.2088C62.7476 62.2105 62.7142 62.2121 62.6807 62.2105C62.6775 62.2107 62.6775 62.2107 62.6775 62.2107C62.4732 62.2041 62.2801 62.1536 62.1054 62.0688C62.006 62.0203 61.9127 61.9581 61.8288 61.8853C61.5497 61.6519 61.3652 61.3034 61.3455 60.9099C61.3281 60.5632 61.4424 60.2399 61.6471 59.9889C61.8796 59.6931 62.2376 59.4981 62.6445 59.4778C63.398 59.4403 64.0387 60.02 64.0763 60.7735Z" fill="#FFD200"/>
<path d="M62.7097 62.2891C62.6988 62.2891 62.6877 62.289 62.6768 62.2884C62.4655 62.2821 62.2623 62.2318 62.0712 62.139C61.9662 62.0876 61.8675 62.0222 61.7776 61.9444C61.4738 61.6902 61.2874 61.3142 61.2674 60.9139C61.2498 60.5592 61.3631 60.2133 61.5865 59.9396C61.8395 59.6178 62.2241 59.4208 62.6405 59.3998C63.0276 59.3803 63.3956 59.5125 63.6814 59.771C63.9672 60.0296 64.1351 60.3843 64.1542 60.7698V60.7696C64.1736 61.1565 64.0419 61.527 63.7832 61.8133C63.5248 62.0996 63.1702 62.2677 62.7846 62.2868C62.7599 62.288 62.7349 62.2891 62.7097 62.2891ZM62.7143 59.5542C62.6924 59.5542 62.6705 59.5547 62.6485 59.5558C62.2772 59.5745 61.9347 59.75 61.7085 60.0372C61.5088 60.2821 61.4077 60.5903 61.4235 60.9062C61.4413 61.2631 61.6074 61.5983 61.879 61.8255C61.9597 61.8952 62.047 61.9532 62.1398 61.9985C62.3108 62.0815 62.4925 62.1266 62.6799 62.1324C62.7157 62.134 62.7463 62.1323 62.7769 62.1307C63.1208 62.1135 63.4371 61.9636 63.6675 61.7085C63.8983 61.4531 64.0158 61.1225 63.9984 60.7775V60.7773C63.9812 60.4338 63.8315 60.1174 63.5765 59.8869C63.3381 59.671 63.034 59.5542 62.7143 59.5542Z" fill="black"/>
<path d="M61.9438 68.0352C57.3678 67.3713 52.5761 66.5411 47.5904 65.5067C40.5069 64.0322 33.9167 62.3291 27.8559 60.516L31.0693 59.3291L22.2975 57.7853C23.6474 57.574 25.6133 57.449 26.7498 57.1115C23.8599 56.4736 20.5059 55.5148 16.8897 54.0575C12.5912 52.3267 9.02858 50.3353 6.21289 48.5072C7.71145 48.1248 9.58472 47.4829 11.5816 46.3703C12.7687 45.7093 13.7766 45.0071 14.6093 44.347C12.1613 44.5931 9.71005 44.8392 7.25876 45.0888C9.78115 43.7895 12.572 42.1757 15.4964 40.1609C15.5222 40.1429 15.5514 40.1246 15.5772 40.1067C15.7322 39.9987 15.8874 39.8906 16.0457 39.7824C16.1652 39.6996 16.2815 39.6169 16.4009 39.5307C16.6722 39.34 16.9433 39.146 17.2142 38.9485C20.3525 36.6623 23.0119 34.3565 25.225 32.2203C23.241 31.9851 21.2571 31.7501 19.273 31.5149C21.8754 30.2784 24.6794 28.7944 27.5991 27.0172C28.2512 26.6203 28.8866 26.2242 29.5049 25.8222C29.6863 25.7061 29.8678 25.5902 30.049 25.4708C30.0556 25.4672 30.0587 25.4636 30.0653 25.46C30.3403 25.2791 30.6155 25.0983 30.8839 24.9176C31.7767 24.3181 32.6392 23.72 33.4654 23.1272C33.5365 23.0769 33.6073 23.0231 33.6784 22.9728C33.8848 22.8222 34.0847 22.6751 34.2845 22.5281C34.32 22.5029 34.3522 22.4779 34.3876 22.4528C35.2838 21.7896 36.1401 21.1317 36.9502 20.4862C35.0511 20.2101 33.1552 19.9338 31.2563 19.661C33.9514 18.8076 36.9596 17.6644 40.1445 16.1113C42.1742 15.1208 44.0148 14.0927 45.6689 13.074C44.3055 12.9482 42.9452 12.8225 41.5818 12.6967C43.4909 12.0999 45.5079 11.3906 47.605 10.5437C48.375 10.2344 49.1246 9.91613 49.8542 9.59892L49.854 9.59564C52.3041 8.52055 54.541 7.39577 56.5577 6.27881C56.4985 6.36538 55.047 8.49039 54.4655 13.109C54.2116 15.1173 54.1249 17.5953 54.3842 20.5809C53.6923 19.1781 52.9973 17.7754 52.302 16.3727C52.63 18.6562 53.1401 21.2347 53.944 24.0126C53.9484 24.0324 53.953 24.0555 53.9606 24.0752C54.0089 24.2399 54.0573 24.4046 54.1055 24.5661L54.1056 24.5693C54.1136 24.5957 54.1217 24.6253 54.1298 24.6517C54.2181 24.9481 54.3094 25.2344 54.4008 25.5239C55.3606 28.5414 56.4471 30.8169 57.5297 33.0159C56.3307 31.5649 55.1623 30.46 53.9631 29.0056C54.3761 31.385 54.9287 33.9448 55.6689 36.6489C56.7316 40.5236 57.9841 43.9776 59.2571 46.9794C57.8486 45.6157 56.4399 44.252 55.0313 42.8885C55.1895 43.9803 55.3876 45.1338 55.6317 46.3383C55.7334 46.8346 55.8422 47.3407 55.9616 47.8562C55.9962 48.015 56.0342 48.1736 56.0723 48.3353C56.077 48.3619 56.085 48.3881 56.0898 48.418C56.1486 48.6556 56.2074 48.8968 56.2697 49.141C56.27 49.1477 56.2736 49.1508 56.2739 49.1575C56.425 49.7718 56.59 50.3986 56.769 51.0349C57.139 52.3536 57.5395 53.6104 57.9564 54.7964C57.9684 54.836 57.9836 54.8719 57.9956 54.9114C58.0583 55.0955 58.1208 55.2763 58.1866 55.4535C58.241 55.6046 58.2952 55.7556 58.353 55.9065C58.8869 57.3607 59.4423 58.7069 59.9986 59.9392C58.6357 58.8875 57.2726 57.8325 55.9128 56.7772C56.355 58.4031 57.0607 60.417 58.2125 62.5958C59.4342 64.908 60.7913 66.7121 61.9438 68.0352Z" fill="#006658"/>
<path d="M62.1419 68.1425L61.9335 68.1123C57.1529 67.4186 52.3222 66.5678 47.5754 65.5827C40.9169 64.1968 34.2752 62.5172 27.8343 60.5906L27.6101 60.5234L30.7717 59.3557L21.8218 57.7802L22.2862 57.7076C22.7444 57.6358 23.2641 57.5752 23.8145 57.5108C24.7424 57.4025 25.6981 57.2908 26.4219 57.1175C23.1765 56.3837 19.9618 55.3789 16.8613 54.1295C13.1391 52.6307 9.54239 50.7611 6.17103 48.5721L6.02148 48.4751L6.19431 48.431C8.06555 47.9535 9.86539 47.237 11.5444 46.3015C12.5212 45.7577 13.4638 45.1358 14.3495 44.4512L14.2365 44.4626C11.9154 44.6957 9.59115 44.9292 7.26737 45.1658L6.85686 45.2075L7.22377 45.0186C10.0748 43.5499 12.8436 41.8936 15.453 40.0958L15.5337 40.0418C15.6888 39.9338 15.844 39.8255 16.0026 39.7172C16.1214 39.635 16.2371 39.5525 16.3561 39.4666C16.6278 39.2756 16.8986 39.0818 17.1689 38.8845C19.9365 36.8687 22.5881 34.6463 25.0527 32.2775L18.9955 31.5597L19.2402 31.4436C22.0725 30.0978 24.8713 28.5858 27.5593 26.9496C28.2725 26.5154 28.8953 26.1249 29.4632 25.7558C29.6448 25.6397 29.8259 25.5239 30.0068 25.4047C30.0164 25.3979 30.0212 25.3948 30.0273 25.3911C30.298 25.2129 30.573 25.0323 30.8411 24.8518C31.7354 24.2513 32.6031 23.6495 33.4206 23.0629C33.4562 23.0377 33.4912 23.012 33.5265 22.9862C33.5621 22.9599 33.5981 22.9337 33.634 22.9082C33.8395 22.7584 34.0394 22.6113 34.2392 22.4643L34.3434 22.3882C35.1713 21.7755 35.9844 21.1529 36.7611 20.5365L36.0103 20.4274C34.4219 20.1963 32.8352 19.9656 31.2462 19.7373L30.9075 19.6892L31.2333 19.5861C34.2745 18.6232 37.2613 17.4303 40.1111 16.0408C41.9319 15.152 43.7198 14.1734 45.4284 13.1299L41.1865 12.7383L41.5592 12.6218C43.5896 11.987 45.614 11.2635 47.5764 10.471C48.2427 10.2034 48.943 9.90935 49.7775 9.54729L49.8234 9.52385C52.1069 8.52174 54.3602 7.40681 56.5205 6.21015L56.8093 6.05029L56.623 6.32266C56.4696 6.54705 55.1073 8.64316 54.5438 13.1187C54.2571 15.3857 54.2299 17.8941 54.4629 20.574L54.4988 20.9881L54.3149 20.6151C53.6959 19.3604 53.0742 18.1055 52.4524 16.8507C52.8218 19.2723 53.3486 21.6719 54.0197 23.9905C54.0253 24.0163 54.0286 24.0327 54.0339 24.0466C54.0844 24.2175 54.1328 24.3821 54.181 24.5435L54.205 24.6283C54.2836 24.8918 54.3639 25.1467 54.445 25.4029L54.4757 25.5003C55.4175 28.4612 56.491 30.7285 57.6001 32.9812L57.895 33.5798L57.4698 33.0654C56.8748 32.3455 56.2771 31.6997 55.6989 31.0751C55.1739 30.5079 54.6329 29.9233 54.0911 29.2806C54.528 31.7439 55.084 34.2143 55.7445 36.6282C56.7074 40.1388 57.9136 43.611 59.3293 46.9487L59.4798 47.3033L55.1423 43.1044C55.3 44.1633 55.4901 45.245 55.7084 46.3227C55.8203 46.8681 55.928 47.3641 56.0378 47.8386C56.0663 47.9688 56.0967 48.0979 56.1277 48.2288L56.1486 48.3174C56.1514 48.3326 56.1539 48.3431 56.1566 48.3538C56.1603 48.3704 56.1644 48.3876 56.1672 48.4057L56.2043 48.5546C56.2504 48.7415 56.2969 48.9306 56.3455 49.1217L56.3468 49.1264C56.3491 49.1328 56.3515 49.1423 56.3519 49.1539C56.5015 49.7554 56.6679 50.386 56.8442 51.0134C57.1984 52.2757 57.5973 53.5397 58.0302 54.7701C58.0369 54.792 58.0432 54.8095 58.0496 54.8272C58.0567 54.8473 58.0641 54.8675 58.0703 54.8886C58.1321 55.0695 58.1944 55.2495 58.2597 55.4261C58.3143 55.5774 58.3682 55.728 58.4258 55.8785C58.931 57.2542 59.4841 58.6093 60.0697 59.907L60.1983 60.192L59.9506 60.0009C58.6499 58.997 57.3489 57.9902 56.0508 56.9831C56.5912 58.9055 57.3412 60.7803 58.2816 62.5592C59.3092 64.5039 60.5613 66.329 62.0028 67.9839L62.1419 68.1425ZM28.1036 60.5079C34.47 62.4053 41.0304 64.0609 47.6072 65.4299C52.2822 66.4 57.0387 67.2399 61.7483 67.9273C60.3566 66.3057 59.1445 64.5251 58.1439 62.6319C57.1612 60.773 56.3854 58.8101 55.8378 56.7973L55.7764 56.5718L55.9611 56.7153C57.2389 57.7069 58.5197 58.6983 59.8005 59.6871C59.2603 58.4726 58.7493 57.2114 58.28 55.9334C58.2225 55.7829 58.1679 55.6313 58.1135 55.4797C58.0478 55.3027 57.9852 55.1213 57.922 54.9364C57.9156 54.9153 57.9094 54.8978 57.903 54.8801C57.8958 54.86 57.8885 54.8398 57.8822 54.8187C57.4494 53.5885 57.0493 52.3213 56.6941 51.0558C56.5172 50.4268 56.3505 49.7943 56.1985 49.1761C56.1977 49.1734 56.1949 49.1661 56.1933 49.1555C56.1449 48.9656 56.0988 48.7778 56.0528 48.5921L56.0145 48.4368C56.011 48.4159 56.0078 48.4026 56.0049 48.3896C56.0014 48.3757 55.9985 48.3621 55.9961 48.3485L55.9761 48.2648C55.9449 48.1329 55.9141 48.0029 55.8858 47.8727C55.7759 47.3978 55.6677 46.9006 55.5556 46.3538C55.3211 45.1959 55.119 44.0336 54.9546 42.8993L54.9218 42.6729L59.0371 46.6568C57.6827 43.4211 56.5251 40.0633 55.5941 36.6693C54.9063 34.1565 54.3319 31.5825 53.8869 29.0189L53.8364 28.728L54.0241 28.9557C54.6255 29.6852 55.2296 30.3379 55.8139 30.9692C56.2613 31.4526 56.7207 31.9488 57.182 32.4827C56.1691 30.4069 55.1929 28.2704 54.3269 25.5476L54.2961 25.4501C54.2149 25.1931 54.1342 24.9376 54.0556 24.6738L54.0286 24.5791C53.9813 24.4205 53.9338 24.2589 53.8864 24.097C53.8802 24.0817 53.8745 24.0569 53.8698 24.0345C53.1515 21.5523 52.5982 18.9785 52.2255 16.3838L52.1561 15.9006L52.373 16.338C53.0074 17.6179 53.6419 18.8982 54.2738 20.1781C54.0769 17.6409 54.1155 15.2613 54.389 13.0991C54.8659 9.31024 55.9164 7.20445 56.3332 6.49205C54.2646 7.62761 52.1139 8.68769 49.9355 9.64558L49.9356 9.64574L49.8864 9.67058C49.0302 10.0426 48.3147 10.3431 47.6351 10.6161C45.7884 11.3618 43.8864 12.0469 41.9762 12.6544L45.9103 13.0176L45.7109 13.1404C43.9375 14.2325 42.0767 15.2556 40.18 16.1813C37.4246 17.525 34.5411 18.6849 31.6048 19.6317C33.0813 19.8442 34.5564 20.0588 36.0328 20.2733L37.1412 20.4344L37.0001 20.5469C36.1792 21.2012 35.3165 21.8634 34.4353 22.5155L34.3309 22.5915C34.1319 22.738 33.9318 22.8851 33.7254 23.0359C33.6893 23.0613 33.6543 23.0871 33.619 23.1129C33.5832 23.1392 33.5474 23.1654 33.5115 23.1909C32.6932 23.7781 31.824 24.3808 30.9285 24.9823C30.6599 25.1631 30.3847 25.344 30.1092 25.5251C30.1 25.5315 30.095 25.535 30.0883 25.5389C29.9117 25.6556 29.7299 25.7717 29.5482 25.8878C28.9796 26.2575 28.3555 26.6488 27.6409 27.0837C25.0257 28.6759 22.3053 30.1503 19.5515 31.469L25.3988 32.1621L25.2804 32.2763C22.777 34.6931 20.079 36.959 17.2613 39.0117C16.9902 39.2094 16.7187 39.4037 16.447 39.5945C16.3281 39.6805 16.2114 39.7635 16.0917 39.8466C15.9329 39.9549 15.778 40.0629 15.6233 40.1707L15.5424 40.2249C13.0383 41.95 10.3882 43.5449 7.65943 44.9693C9.84757 44.747 12.0357 44.5271 14.2212 44.3076L14.8681 44.2426L14.6591 44.4082C13.7055 45.1639 12.6833 45.8469 11.6208 46.4384C9.9818 47.3519 8.22807 48.0577 6.40573 48.5382C9.72553 50.6801 13.2621 52.5123 16.92 53.9849C20.112 55.2714 23.4252 56.2974 26.7678 57.0352L27.063 57.1003L26.7733 57.1864C26.0148 57.4116 24.9057 57.5413 23.8332 57.6665C23.4705 57.709 23.121 57.7496 22.7944 57.7932L31.3688 59.3024L28.1036 60.5079Z" fill="black"/>
<path d="M44.7699 20.7892C44.6936 20.7892 44.6239 20.7742 44.5633 20.7409C44.1328 20.5048 44.2608 19.6786 44.3728 19.2144C44.044 19.5349 43.4143 20.0302 42.9286 19.6986C42.8311 19.6319 42.7738 19.5343 42.758 19.4083C42.6761 18.7443 43.8532 17.4086 43.9034 17.3521L44.0203 17.4558C43.6917 17.8263 42.8521 18.8961 42.9132 19.3892C42.923 19.4699 42.9569 19.5289 43.0168 19.5696C43.5738 19.9507 44.4636 18.8906 44.4725 18.8798L44.7306 18.5687L44.6069 18.9537C44.4828 19.34 44.2465 20.3892 44.6381 20.604C45.0346 20.8215 46.1406 19.8777 46.5334 19.4955L46.6424 19.6075C46.5059 19.7404 45.4079 20.7892 44.7699 20.7892Z" fill="black"/>
<path d="M48.8384 31.2963C48.7913 31.2963 48.7463 31.2891 48.704 31.2734C48.243 31.1044 48.2458 30.2684 48.2872 29.7924C48.0103 30.1584 47.4615 30.742 46.9318 30.4871C46.8252 30.4359 46.7538 30.3479 46.7197 30.2257C46.5393 29.5816 47.5034 28.0844 47.5443 28.021L47.6756 28.1062C47.4061 28.5217 46.736 29.705 46.8702 30.1837C46.8923 30.2618 46.9345 30.3151 46.9996 30.3465C47.6087 30.639 48.3286 29.4585 48.336 29.4466L48.5446 29.1008L48.4799 29.4994C48.415 29.8997 48.3385 30.973 48.7577 31.1266C49.1848 31.2831 50.1346 30.1835 50.4658 29.7469L50.5904 29.8413C50.4702 29.9996 49.4679 31.2963 48.8384 31.2963Z" fill="black"/>
<path d="M47.6518 51.5217C47.6504 51.5217 47.649 51.5217 47.6477 51.5217C47.1568 51.5159 46.881 50.7268 46.7613 50.2644C46.622 50.7018 46.3011 51.4351 45.7149 51.3712C45.5974 51.3584 45.501 51.2992 45.4279 51.1954C45.043 50.6483 45.453 48.9152 45.4705 48.8418L45.6226 48.8782C45.5071 49.36 45.2697 50.6991 45.5557 51.1056C45.6024 51.172 45.6601 51.2079 45.732 51.2159C46.3987 51.2925 46.6892 49.9359 46.6919 49.9222L46.7733 49.5261L46.8453 49.9241C46.9175 50.3233 47.2029 51.3603 47.6496 51.3656C47.6506 51.3656 47.6515 51.3656 47.6523 51.3656C48.1043 51.3656 48.6339 50.0164 48.8002 49.4954L48.9491 49.5431C48.8842 49.7458 48.2989 51.5217 47.6518 51.5217Z" fill="black"/>
<path d="M22.989 42.0855C22.9382 42.0855 22.8899 42.0772 22.8448 42.0597C22.3877 41.8806 22.4086 41.0449 22.4602 40.5701C22.1757 40.9298 21.6145 41.5022 21.0903 41.2353C20.9849 41.1817 20.9156 41.0923 20.884 40.9693C20.7174 40.3214 21.7139 38.8457 21.7564 38.7832L21.8855 38.871C21.6072 39.2806 20.9117 40.4493 21.0353 40.9306C21.0556 41.0092 21.0968 41.0634 21.1612 41.096C21.7634 41.4015 22.5091 40.2371 22.5166 40.2254L22.7327 39.8844L22.6594 40.2813C22.5858 40.6802 22.4862 41.7513 22.9021 41.9141C23.3225 42.0797 24.2991 41.001 24.6396 40.5718L24.762 40.6688C24.6391 40.8237 23.6192 42.0855 22.989 42.0855Z" fill="black"/>
<path d="M32.5848 58.1169C32.5342 58.1169 32.4859 58.1086 32.4408 58.0911C31.9835 57.9119 32.0046 57.0764 32.0562 56.6016C31.7716 56.9615 31.2103 57.5337 30.6861 57.2667C30.5806 57.2131 30.5112 57.1237 30.4797 57.0007C30.3132 56.3529 31.3096 54.877 31.3521 54.8145L31.4812 54.9023C31.2028 55.3118 30.5073 56.4805 30.6311 56.9618C30.6512 57.0406 30.6925 57.0948 30.757 57.1276C31.3593 57.4333 32.1051 56.2686 32.1125 56.2569L32.3287 55.9158L32.2553 56.3129C32.1817 56.7118 32.0818 57.7827 32.498 57.9456C32.9166 58.1107 33.8948 57.0324 34.2354 56.6032L34.3578 56.7002C34.2351 56.8549 33.2149 58.1169 32.5848 58.1169Z" fill="black"/>
<path d="M51.4569 62.5621C51.4548 62.5621 51.4531 62.5621 51.4511 62.5621C50.96 62.554 50.6879 61.7635 50.5706 61.3004C50.4293 61.7369 50.0999 62.4677 49.5189 62.4023C49.4014 62.3888 49.3051 62.3291 49.2326 62.2249C48.8504 61.6758 49.269 59.945 49.287 59.8716L49.4388 59.9088C49.3208 60.3899 49.077 61.7278 49.3609 62.1355C49.4073 62.2022 49.4648 62.2385 49.5367 62.2468C50.2088 62.3229 50.5001 60.9712 50.5031 60.9576L50.5865 60.5627L50.6563 60.9603C50.7267 61.36 51.007 62.3985 51.4538 62.4059C51.4552 62.4059 51.4564 62.4059 51.4575 62.4059C51.9093 62.4059 52.4446 61.0612 52.6134 60.5413L52.762 60.5896C52.696 60.792 52.1029 62.562 51.4569 62.5621Z" fill="black"/>
<path d="M58.9779 5.30274L60.5507 0.710024L56.6487 3.54416L52.6862 0.414062L54.7071 5.01599L49.9744 7.80215L54.2199 7.52369C52.8502 8.22422 51.395 8.91943 49.8555 9.59511L49.8556 9.59839C50.2027 10.1894 50.7521 10.9476 51.5955 11.6375C52.6448 12.501 53.7214 12.9085 54.4669 13.1085C54.7352 10.9771 55.1884 9.38291 55.605 8.26891L56.163 12.6641L57.8686 7.71387L62.6995 8.28094L58.9779 5.30274Z" fill="#FFD200"/>
<path d="M54.5327 13.2072L54.4459 13.1839C53.3676 12.8944 52.3917 12.3943 51.5451 11.6977C50.8453 11.1255 50.2539 10.4323 49.7874 9.63787L49.7777 9.62131L49.7745 9.54833L49.8232 9.52349C51.1752 8.93016 52.5262 8.29276 53.8442 7.62646L49.6504 7.90148L54.6069 4.98375L52.488 0.158203L56.65 3.44597L60.7041 0.501512L59.0691 5.27596L62.9605 8.39043L57.9214 7.79897L56.1273 13.0066L55.5677 8.59951C55.0974 9.9368 54.7533 11.455 54.5439 13.1185L54.5327 13.2072ZM49.9657 9.63177C50.4159 10.3796 50.9802 11.0339 51.6443 11.5771C52.4509 12.2407 53.3777 12.7223 54.4003 13.0094C54.6284 11.2422 55.0089 9.63865 55.5312 8.24151L55.6421 7.94508L56.1978 12.322L57.8146 7.62896L62.4372 8.17166L58.8857 5.32956L60.3961 0.918577L56.6461 3.64223L52.8833 0.669807L54.8063 5.04844L50.2968 7.70271L54.5917 7.42113L54.2548 7.59349C52.8528 8.31026 51.4102 8.99579 49.9657 9.63177Z" fill="black"/>
<path d="M54.1312 24.6513C53.3474 24.8877 52.5518 25.0879 51.7507 25.2449C51.3075 25.3407 50.8636 25.4196 50.4156 25.4856C50.2962 25.5049 50.1766 25.5209 50.0571 25.537C46.9661 25.9589 43.7803 25.757 40.7245 25.1443C39.2725 24.8525 37.8031 24.5481 36.3904 24.1041C35.4531 23.81 34.5513 23.4238 33.6797 22.9726C33.8861 22.8219 34.086 22.6749 34.2858 22.5278C35.2145 22.9829 36.1761 23.3627 37.1829 23.6432C38.0744 23.8895 38.9714 24.112 39.8771 24.3075C40.3129 24.3994 40.7451 24.4847 41.1834 24.5597C41.1867 24.5596 41.1867 24.5596 41.1867 24.5596C42.8126 24.8527 44.4532 25.0382 46.0999 25.0794C48.7675 25.1466 51.3992 24.7644 53.9455 24.012C53.9499 24.0319 53.9544 24.055 53.9621 24.0747C54.0104 24.2394 54.0588 24.4041 54.1069 24.5655L54.1071 24.5688C54.1151 24.5952 54.1232 24.6249 54.1312 24.6513Z" fill="black"/>
<path d="M42.1225 23.1945C42.1602 23.9489 41.5792 24.591 40.8247 24.6288C40.0703 24.6665 39.4282 24.0855 39.3904 23.3311C39.3527 22.5766 39.9337 21.9346 40.6882 21.8968C41.4428 21.8591 42.0848 22.4401 42.1225 23.1945Z" fill="#FFD200"/>
<path d="M40.7542 24.7086C40.3955 24.7086 40.0543 24.5773 39.7862 24.3348C39.4999 24.0757 39.3316 23.7204 39.3124 23.3349C39.293 22.9491 39.4251 22.5789 39.6842 22.2926C39.9432 22.0062 40.2986 21.8379 40.6841 21.8187C41.4762 21.7794 42.1606 22.3942 42.2003 23.1903C42.2401 23.9867 41.6246 24.6669 40.8285 24.7066C40.8035 24.708 40.7788 24.7086 40.7542 24.7086ZM40.7569 21.9731C40.7353 21.9731 40.7136 21.9735 40.6919 21.9746C40.3478 21.9918 40.0311 22.142 39.8 22.3975C39.5688 22.653 39.451 22.983 39.4682 23.3269C39.4854 23.671 39.6356 23.9879 39.8911 24.2189C40.1464 24.4501 40.4753 24.5672 40.8203 24.5506C41.5307 24.5151 42.0797 23.9085 42.0442 23.1983C42.0098 22.5098 41.4388 21.9731 40.7569 21.9731Z" fill="black"/>
<path d="M52.6577 26.465C52.6953 27.2195 52.1143 27.8616 51.3599 27.8994C50.6055 27.937 49.9634 27.356 49.9256 26.6016C49.8879 25.8472 50.4689 25.2051 51.2233 25.1673C51.9779 25.1295 52.62 25.7106 52.6577 26.465Z" fill="#FFD200"/>
<path d="M51.2906 27.9792C50.5263 27.9792 49.8861 27.3773 49.8475 26.6055C49.8077 25.8094 50.4232 25.1292 51.2194 25.0893C52.0133 25.0484 52.6957 25.6648 52.7356 26.4612C52.7754 27.2575 52.1599 27.9377 51.3637 27.9774C51.3392 27.9788 51.3148 27.9792 51.2906 27.9792ZM51.2922 25.2439C51.2706 25.2439 51.2489 25.2443 51.2272 25.2454C50.5168 25.2812 49.9679 25.8877 50.0033 26.5977C50.0391 27.3079 50.6501 27.8574 51.3556 27.8216C52.066 27.786 52.6149 27.1795 52.5795 26.4693C52.5451 25.7806 51.9741 25.2439 51.2922 25.2439Z" fill="black"/>
<path d="M58.1876 55.4527C55.1711 55.56 52.1466 55.5774 49.1336 55.4171C46.2243 55.2616 43.3289 54.9183 40.4836 54.3049C40.0647 54.2156 39.6453 54.1195 39.2257 54.0168C39.1885 54.0087 39.1548 54.0002 39.1174 53.9888C35.9763 53.2064 32.9537 52.0573 30.0208 50.6928C27.0569 49.3133 24.1911 47.618 21.5354 45.7149C21.3099 45.5524 21.0879 45.3895 20.8657 45.2236C20.5844 45.0137 20.3097 44.8001 20.0347 44.5832C20.0314 44.5834 20.0314 44.5834 20.0312 44.5801C19.2548 43.9604 18.5105 43.3123 17.7973 42.6226C16.9925 41.8371 16.2422 41.0021 15.498 40.1602C15.5238 40.1422 15.5531 40.124 15.5788 40.106C15.7338 39.998 15.889 39.8899 16.0473 39.7817C16.8796 40.7162 17.7217 41.6469 18.6366 42.4971C19.9754 43.7372 21.419 44.8618 22.934 45.8793C24.7464 47.0958 26.6278 48.2218 28.57 49.2245L28.5735 49.2277C28.7763 49.3378 28.9819 49.4413 29.1877 49.5446C32.8088 51.3659 36.6335 52.7826 40.5944 53.6477C44.0314 54.3953 47.5319 54.7384 51.0468 54.8401L51.0501 54.84C51.6395 54.8606 52.2251 54.8715 52.8135 54.8756C52.817 54.8787 52.8168 54.8754 52.8168 54.8754C54.5324 54.89 56.2457 54.8578 57.9574 54.7958C57.9694 54.8353 57.9846 54.8712 57.9966 54.9108C58.0594 55.0948 58.1219 55.2755 58.1876 55.4527Z" fill="black"/>
<path d="M30.8549 48.1408C30.8926 48.8952 30.3116 49.5373 29.5572 49.5751C28.8027 49.6128 28.1606 49.0318 28.1228 48.2774C28.0852 47.523 28.6662 46.8809 29.4206 46.8431C30.175 46.8052 30.8173 47.3864 30.8549 48.1408Z" fill="#FFD200"/>
<path d="M29.4879 49.6549C28.7236 49.6549 28.0834 49.053 28.0448 48.2812C28.0255 47.8954 28.1577 47.5253 28.4167 47.2389C28.6758 46.9525 29.0312 46.7842 29.4167 46.765C30.2088 46.7256 30.8932 47.3406 30.9329 48.1368C30.9727 48.9331 30.3572 49.6133 29.561 49.653C29.5367 49.6543 29.5121 49.6549 29.4879 49.6549ZM29.4896 46.9195C29.4681 46.9195 29.4464 46.92 29.4246 46.9211C29.0805 46.9383 28.7636 47.0884 28.5327 47.3439C28.3016 47.5994 28.1838 47.9294 28.2008 48.2734C28.2366 48.9837 28.8455 49.5341 29.5531 49.4972C30.2634 49.4616 30.8124 48.8551 30.7769 48.1449C30.7424 47.4563 30.1714 46.9195 29.4896 46.9195Z" fill="black"/>
<path d="M40.9037 55.2228C40.9414 55.9773 40.3604 56.6194 39.606 56.6572C38.8516 56.6948 38.2095 56.1139 38.1717 55.3594C38.134 54.605 38.715 53.9629 39.4694 53.9251C40.2239 53.8873 40.8659 54.4684 40.9037 55.2228Z" fill="#FFD200"/>
<path d="M39.5367 56.737C38.7721 56.737 38.1321 56.1351 38.0936 55.3635C38.0538 54.5672 38.6693 53.887 39.4653 53.8473C40.2597 53.8048 40.9418 54.4228 40.9815 55.219C41.0214 56.0153 40.4058 56.6955 39.6098 56.7352C39.5853 56.7364 39.5609 56.737 39.5367 56.737ZM39.5381 54.0017C39.5166 54.0017 39.4948 54.0021 39.4731 54.0032C38.7629 54.0389 38.214 54.6453 38.2494 55.3555C38.2851 56.0656 38.8921 56.613 39.6017 56.5792C40.3119 56.5436 40.8609 55.9371 40.8254 55.2269C40.791 54.5384 40.22 54.0017 39.5381 54.0017Z" fill="black"/>
<path d="M53.3198 53.7472C53.3574 54.5017 52.7764 55.1438 52.022 55.1816C51.2676 55.2192 50.6255 54.6383 50.5877 53.8838C50.55 53.1294 51.131 52.4873 51.8854 52.4495C52.6399 52.4118 53.2819 52.9928 53.3198 53.7472Z" fill="#FFD200"/>
<path d="M51.9519 55.2612C51.593 55.2612 51.2517 55.13 50.9836 54.8875C50.6972 54.6284 50.5289 54.2732 50.5096 53.8877C50.4698 53.0914 51.0853 52.4112 51.8815 52.3715C52.6729 52.3313 53.358 52.947 53.3977 53.7432C53.4375 54.5395 52.822 55.2197 52.0259 55.2594C52.001 55.2606 51.9763 55.2612 51.9519 55.2612ZM51.9544 52.5259C51.9329 52.5259 51.9112 52.5263 51.8894 52.5274C51.1791 52.5629 50.6301 53.1695 50.6656 53.8797C50.6828 54.2237 50.833 54.5404 51.0884 54.7717C51.3438 55.0026 51.6721 55.1197 52.0179 55.1034C52.7283 55.0678 53.2772 54.4613 53.2417 53.7511C53.2072 53.0628 52.6362 52.5259 51.9544 52.5259Z" fill="black"/>
<path d="M21.0463 45.8366C21.084 46.591 20.503 47.2331 19.7486 47.2709C18.9941 47.3086 18.352 46.7276 18.3142 45.9732C18.2766 45.2188 18.8576 44.5767 19.612 44.5389C20.3664 44.501 21.0087 45.0822 21.0463 45.8366Z" fill="#FFD200"/>
<path d="M19.6793 47.3508C18.9147 47.351 18.2746 46.7489 18.2362 45.9773C18.1964 45.1809 18.8119 44.5007 19.6079 44.461C20.4022 44.4187 21.0842 45.0366 21.1241 45.8327C21.1435 46.2185 21.0114 46.5887 20.7523 46.875C20.4933 47.1614 20.1379 47.3297 19.7524 47.3489C19.7279 47.3502 19.7035 47.3508 19.6793 47.3508ZM19.6807 44.6154C19.6591 44.6154 19.6374 44.6159 19.6157 44.617C18.9055 44.6526 18.3565 45.2591 18.392 45.9693C18.4276 46.6795 19.0352 47.2303 19.7443 47.193C20.0884 47.1758 20.4051 47.0256 20.6362 46.7701C20.8675 46.5146 20.9852 46.1846 20.968 45.8407C20.9336 45.1523 20.3626 44.6154 19.6807 44.6154Z" fill="black"/>
<path d="M56.0906 48.4174C56.1494 48.6551 56.2081 48.8962 56.2705 49.1404C54.8163 48.6048 53.4229 47.9457 52.0625 47.2114C50.7021 46.4771 49.3724 45.6911 48.08 44.8465C47.4998 44.4743 46.929 44.0883 46.3674 43.6886C43.6584 41.7883 41.1276 39.6415 38.8186 37.2532C35.3993 33.7169 32.4278 29.7739 29.5059 25.8217C29.6873 25.7056 29.8687 25.5896 30.05 25.4703C30.0565 25.4667 30.0597 25.4631 30.0662 25.4595C31.5145 27.4162 32.9724 29.3657 34.5013 31.2615C36.2364 33.4078 38.0106 35.5287 39.9729 37.4731C41.8792 39.3634 43.9395 41.1257 46.1047 42.7124C48.3396 44.3557 50.748 45.7931 53.2117 47.0639C54.0625 47.4994 54.9309 47.8872 55.8141 48.2341C55.8994 48.2699 55.988 48.3022 56.0731 48.3349C56.2708 48.4119 56.465 48.4858 56.6627 48.5594C56.4583 48.5527 56.2653 48.5023 56.0906 48.4174Z" fill="black"/>
<path d="M48.0873 44.9416C48.125 45.696 47.544 46.3381 46.7896 46.3759C46.0351 46.4136 45.3931 45.8326 45.3552 45.0782C45.3176 44.3237 45.8986 43.6816 46.653 43.6438C47.4074 43.6062 48.0497 44.1871 48.0873 44.9416Z" fill="#FFD200"/>
<path d="M46.7195 46.4556C46.3606 46.4556 46.0192 46.3245 45.7512 46.0818C45.4647 45.8227 45.2964 45.4675 45.2772 45.0819C45.2374 44.2856 45.8529 43.6054 46.649 43.5657C47.0374 43.5472 47.405 43.6785 47.6913 43.9376C47.9778 44.1967 48.146 44.5518 48.1653 44.9373C48.2051 45.7337 47.5896 46.4139 46.7934 46.4536C46.7687 46.455 46.7441 46.4556 46.7195 46.4556ZM46.7228 43.7202C46.7009 43.7202 46.6791 43.7207 46.657 43.7218C45.9466 43.7574 45.3977 44.3639 45.4332 45.0741C45.4504 45.4182 45.6005 45.7349 45.856 45.966C46.1115 46.197 46.4415 46.3135 46.7855 46.2978C47.4958 46.2623 48.0448 45.6557 48.0093 44.9455C47.9921 44.6014 47.842 44.2848 47.5865 44.0535C47.3474 43.8373 47.043 43.7202 46.7228 43.7202Z" fill="black"/>
<path d="M58.0607 47.1222C58.0985 47.8791 57.5188 48.5198 56.7653 48.5574C56.732 48.5591 56.6986 48.5607 56.6651 48.5591C56.6618 48.5593 56.6618 48.5593 56.6618 48.5593C56.4576 48.5527 56.2645 48.5023 56.0898 48.4174C55.9904 48.3688 55.8971 48.3068 55.8132 48.234C55.5341 48.0005 55.3495 47.652 55.3299 47.2586C55.3125 46.9118 55.4267 46.5885 55.6314 46.3376C55.864 46.0418 56.222 45.8467 56.6289 45.8264C57.3824 45.7889 58.023 46.3687 58.0607 47.1222Z" fill="#FFD200"/>
<path d="M56.6941 48.6377C56.6832 48.6377 56.6721 48.6376 56.6612 48.637C56.4496 48.6307 56.2464 48.5804 56.0555 48.4877C55.95 48.436 55.8514 48.3705 55.762 48.293C55.4582 48.039 55.2718 47.663 55.2518 47.2625C55.234 46.9081 55.3473 46.5623 55.5708 46.2882C55.8237 45.9664 56.2083 45.7694 56.6247 45.7485C57.4228 45.7081 58.0991 46.3232 58.1388 47.1183C58.1581 47.5052 58.0264 47.8758 57.7678 48.1619C57.5093 48.4482 57.1546 48.6163 56.769 48.6354C56.7443 48.6367 56.7191 48.6377 56.6941 48.6377ZM56.6976 45.9028C56.676 45.9028 56.6546 45.9033 56.6327 45.9044C56.2614 45.9232 55.9189 46.0986 55.6928 46.3858C55.4931 46.6309 55.3921 46.9392 55.4079 47.2547C55.4257 47.6119 55.5918 47.9471 55.8634 48.1741C55.9438 48.2438 56.0309 48.3016 56.1241 48.3473C56.2949 48.4301 56.4766 48.4752 56.6643 48.4812C56.7002 48.483 56.7308 48.481 56.7613 48.4795C57.1051 48.4623 57.4215 48.3124 57.6519 48.0572C57.8827 47.8019 58 47.4712 57.9828 47.1262C57.9484 46.4387 57.3782 45.9028 56.6976 45.9028Z" fill="black"/>
<path d="M37.0903 44.7152C37.0814 44.7172 37.074 44.7166 37.0651 44.7186C34.3265 44.9672 31.6295 43.7798 29.7567 41.8048C29.089 41.1015 28.4379 40.2058 27.981 39.2318C27.264 37.717 27.0245 36.0137 27.9517 34.5631C28.8148 33.2218 30.0878 33.4757 31.2928 34.2076C32.3554 34.8547 33.3681 35.8765 33.9903 36.5055C34.5332 37.0468 35.1064 37.5457 35.7878 37.9015C36.8845 38.4817 38.1454 38.5713 39.2564 39.0915C39.4758 39.1938 39.716 39.3243 39.9544 39.4884C40.6463 39.9503 41.3375 40.6222 41.5297 41.3391C42.0935 43.486 38.6298 44.5727 37.0903 44.7152Z" fill="black"/>
<path d="M36.3543 44.8278C33.9307 44.8278 31.4919 43.7485 29.6997 41.8585C28.9692 41.0891 28.3337 40.1681 27.9099 39.2649C27.3167 38.0117 26.8309 36.1711 27.8857 34.5211C28.6453 33.3404 29.8054 33.213 31.3332 34.1409C32.4093 34.7963 33.4336 35.8318 34.0456 36.4506C34.4898 36.8935 35.0936 37.451 35.8238 37.8323C36.3997 38.137 37.035 38.3084 37.6498 38.4741C38.197 38.6216 38.763 38.7742 39.2893 39.0207C39.5424 39.1388 39.7809 39.2744 39.9984 39.424C40.4 39.6921 41.3624 40.4148 41.6049 41.319C41.747 41.8601 41.6526 42.372 41.3241 42.8413C40.4744 44.055 38.2867 44.6814 37.1027 44.7922L37.0841 44.7947C36.8416 44.8168 36.5978 44.8278 36.3543 44.8278ZM37.0578 44.641L37.0838 44.7163L37.0739 44.6389L37.083 44.6374C38.3231 44.5227 40.4192 43.8617 41.1961 42.7517C41.4969 42.322 41.5837 41.8535 41.4538 41.3593C41.2252 40.5067 40.2984 39.8124 39.9107 39.5535C39.6994 39.4082 39.4685 39.2769 39.2232 39.1624C38.7091 38.9217 38.1498 38.7708 37.609 38.6252C36.9861 38.4572 36.3421 38.2834 35.7512 37.9707C35.0027 37.5798 34.3871 37.0119 33.9349 36.5611C33.3275 35.947 32.3117 34.9199 31.2519 34.2745C29.7902 33.3866 28.7322 33.4946 28.0173 34.6055C27.0011 36.1951 27.4749 37.9806 28.0515 39.1985C28.4682 40.087 29.0939 40.9933 29.8132 41.751C31.7529 43.7965 34.4601 44.8761 37.0578 44.641Z" fill="black"/>
<path d="M37.0898 44.7153C37.0809 44.7173 37.0735 44.7167 37.0646 44.7187C34.326 44.9673 31.629 43.7799 29.7562 41.8049C29.0885 41.1015 28.4374 40.2058 27.9805 39.2318C29.6592 38.5099 31.8705 38.6713 33.8105 39.8386C35.7605 41.0084 36.9437 42.8865 37.0898 44.7153Z" fill="#FF2A2A"/>
<path d="M36.3536 44.8277C33.93 44.8277 31.4912 43.7484 29.6991 41.8584C28.9685 41.0889 28.333 40.1679 27.9092 39.2647L27.875 39.1918L27.9492 39.1599C29.7061 38.4044 31.9677 38.6387 33.8503 39.7713C35.7438 40.9072 37.0148 42.7991 37.1673 44.7088L37.1726 44.7756L37.0835 44.7947C36.841 44.8166 36.5971 44.8277 36.3536 44.8277ZM28.0858 39.2719C28.5021 40.1365 29.1129 41.0139 29.8125 41.7507C31.7391 43.7826 34.4233 44.8622 37.0048 44.6452C36.829 42.8108 35.5955 41.0005 33.7698 39.9053C31.956 38.8139 29.7866 38.5745 28.0858 39.2719Z" fill="black"/>
<path d="M37.5629 27.1522L37.1094 27.9932L40.872 30.0224L41.3255 29.1814L37.5629 27.1522Z" fill="black"/>
<path d="M40.902 30.1288L37.002 28.0255L37.5297 27.0469L41.4297 29.1502L40.902 30.1288ZM37.2137 27.9621L40.8384 29.9171L41.2178 29.2138L37.5931 27.2588L37.2137 27.9621Z" fill="black"/>
<path d="M55.3038 36.7202C52.6536 41.6344 47.4905 44.016 43.6508 42.1491C43.5726 42.1102 43.4944 42.0711 43.4175 42.0297C43.1677 41.895 42.9316 41.745 42.7056 41.5811L42.7034 41.58C42.5911 41.4967 42.4845 41.4134 42.3784 41.3239C41.8352 40.8692 41.3708 40.3244 40.9958 39.7113C39.3183 36.9788 39.3325 32.8784 41.326 29.1821L55.3038 36.7202Z" fill="black"/>
<path d="M46.496 42.8707C45.4999 42.8707 44.5248 42.6607 43.6164 42.2191C43.5299 42.176 43.4544 42.1382 43.38 42.0982C43.1353 41.9661 42.8926 41.8134 42.6593 41.6442C42.537 41.5539 42.4295 41.4692 42.3279 41.3834C41.7829 40.9273 41.312 40.3782 40.9289 39.7519C39.1851 36.9115 39.3139 32.748 41.257 29.1449L41.2941 29.0762L55.4094 36.6885L55.3724 36.7573C53.3157 40.5707 49.7929 42.8707 46.496 42.8707ZM41.3577 29.2877C39.4758 32.8268 39.358 36.8943 41.062 39.67C41.4364 40.2819 41.8961 40.8182 42.4284 41.2636C42.5276 41.3473 42.6328 41.43 42.7497 41.5169C42.9789 41.6826 43.2153 41.8317 43.4544 41.9605C43.5272 41.9999 43.6011 42.0367 43.6753 42.0738C45.5228 42.9724 47.7268 42.9113 49.8901 41.9066C52.0435 40.9063 53.9257 39.0774 55.1974 36.7516L41.3577 29.2877Z" fill="black"/>
<path d="M49.9906 33.8543C47.5222 36.4275 44.9541 38.8791 42.3787 41.3233C41.8355 40.8686 41.3711 40.3239 40.9961 39.7107C43.3378 37.3927 45.7635 35.1749 48.0728 32.8198L49.9906 33.8543Z" fill="white"/>
<path d="M42.3813 41.4282L42.3278 41.3835C41.7826 40.9271 41.3118 40.3782 40.9287 39.7517L40.8965 39.6989L40.9404 39.6554C41.9261 38.6799 42.9429 37.7062 43.9263 36.7646C45.2796 35.4689 46.6791 34.1291 48.0161 32.7657L48.0574 32.7236L50.1174 33.8343L50.0463 33.9084C47.6223 36.4353 45.1637 38.7874 42.4319 41.3803L42.3813 41.4282ZM41.0946 39.7226C41.4501 40.2924 41.8805 40.7951 42.375 41.2187C45.0585 38.6715 47.4787 36.355 49.8624 33.8743L48.0867 32.9168C46.7605 34.2675 45.375 35.594 44.0345 36.8774C43.0662 37.8043 42.0653 38.7626 41.0946 39.7226Z" fill="black"/>
<path d="M51.2519 34.5346C48.7628 37.1258 46.169 39.5892 43.6503 42.1483C43.572 42.1094 43.4939 42.0704 43.417 42.029C43.1671 41.8943 42.931 41.7442 42.7051 41.5803C44.7388 39.6494 46.7732 37.7122 48.7527 35.7133C49.2942 35.1642 49.8314 34.6129 50.3635 34.0557L51.2519 34.5346Z" fill="white"/>
<path d="M43.667 42.2439L43.6163 42.2186C43.5305 42.1757 43.455 42.1379 43.3806 42.0978C43.1359 41.9657 42.8932 41.813 42.6599 41.6438L42.584 41.5888L42.6521 41.5241C44.826 39.46 46.7815 37.5943 48.6982 35.6587C49.2895 35.0591 49.816 34.517 50.308 34.002L50.3491 33.959L51.3806 34.5153L51.3094 34.5895C49.8739 36.0837 48.3795 37.5596 46.9342 38.9869C45.8721 40.0357 44.7737 41.12 43.7072 42.2039L43.667 42.2439ZM42.8282 41.5721C43.0321 41.7155 43.2425 41.846 43.4548 41.9603C43.5144 41.9924 43.5747 42.0229 43.6352 42.0534C44.6901 40.9822 45.7746 39.9113 46.8239 38.8752C48.2447 37.4721 49.7128 36.0223 51.125 34.5548L50.3796 34.1527C49.8989 34.6556 49.3847 35.1847 48.8092 35.7682C46.9109 37.6851 44.9756 39.5332 42.8282 41.5721Z" fill="black"/>
<path d="M37.5624 27.1525C34.8582 32.167 29.5374 34.5444 25.6762 32.462C25.5566 32.3975 25.4418 32.3292 25.3285 32.2582C25.0189 32.0654 24.7328 31.8496 24.468 31.6097C24.3633 31.5177 24.2634 31.4218 24.1682 31.3219C23.6702 30.8141 23.2575 30.2195 22.9322 29.5652C21.5879 26.8541 21.7263 23.0598 23.5846 19.6143L37.5624 27.1525Z" fill="black"/>
<path d="M28.7182 33.2915C27.6428 33.2915 26.5958 33.0472 25.6387 32.5311C25.5292 32.4719 25.4173 32.4064 25.2867 32.3248C24.9755 32.1311 24.6824 31.9099 24.415 31.668C24.31 31.5755 24.2075 31.4771 24.1113 31.3761C23.6186 30.8735 23.1977 30.2757 22.8621 29.6005C21.4582 26.7689 21.7086 22.9284 23.5156 19.5775L23.5526 19.5088L37.6681 27.1211L37.6311 27.1899C35.5795 30.9935 32.0158 33.2915 28.7182 33.2915ZM23.6162 19.7204C21.8665 23.0109 21.6298 26.7633 23.0019 29.5308C23.3304 30.1914 23.7414 30.7756 24.2236 31.2674C24.3175 31.3658 24.4164 31.461 24.5191 31.551C24.7804 31.7877 25.0662 32.0031 25.3693 32.192C25.497 32.2718 25.6062 32.3358 25.7128 32.3933C29.5115 34.442 34.7651 32.1053 37.4559 27.1841L23.6162 19.7204Z" fill="black"/>
<path d="M31.6611 23.9703C29.2312 26.5029 26.7044 28.9184 24.1677 31.322C23.6697 30.8142 23.257 30.2196 22.9316 29.5653C25.1918 27.3423 27.5206 25.2018 29.7433 22.936L31.6611 23.9703Z" fill="white"/>
<path d="M24.1651 31.4314L24.1112 31.3764C23.6177 30.873 23.1969 30.2753 22.8613 29.6001L22.8359 29.5493L22.8764 29.5096C23.7693 28.6315 24.6876 27.7519 25.5757 26.9014C26.9361 25.5986 28.3428 24.2515 29.687 22.8812L29.7282 22.8394L31.7881 23.9502L31.717 24.0243C29.2632 26.5817 26.6683 29.0599 24.2209 31.3786L24.1651 31.4314ZM23.0264 29.5811C23.3383 30.1967 23.7224 30.7447 24.1692 31.2121C26.5753 28.932 29.121 26.4996 31.5327 23.9902L29.7573 23.0325C28.4239 24.3901 27.0311 25.724 25.6838 27.0144C24.8095 27.8516 23.9057 28.717 23.0264 29.5811Z" fill="black"/>
<path d="M32.9228 24.6506C30.4351 27.2393 27.8446 29.7014 25.3273 32.258C25.0178 32.0651 24.7317 31.8493 24.4668 31.6095C26.471 29.7079 28.4715 27.7978 30.4235 25.8292C30.965 25.2801 31.5022 24.7288 32.0343 24.1714L32.9228 24.6506Z" fill="white"/>
<path d="M25.3387 32.3574L25.2855 32.3244C24.9744 32.1305 24.6813 31.9094 24.4139 31.6675L24.3516 31.6109L24.4128 31.553C26.3356 29.7286 28.3792 27.7798 30.3677 25.7744C30.9538 25.1803 31.4804 24.6383 31.9776 24.1177L32.0187 24.0747L33.0502 24.631L32.979 24.7052C31.5418 26.2007 30.0459 27.6781 28.5991 29.107C27.5407 30.1522 26.4463 31.2333 25.3829 32.3133L25.3387 32.3574ZM24.5817 31.6077C24.8096 31.808 25.0558 31.993 25.3152 32.1583C26.3656 31.0926 27.4448 30.0266 28.4891 28.9953C29.9112 27.5909 31.3809 26.1394 32.7949 24.6705L32.0495 24.2685C31.564 24.7765 31.0496 25.3056 30.4789 25.8842C28.5097 27.8699 26.4875 29.7995 24.5817 31.6077Z" fill="black"/>
<path d="M35.5583 32.9723C35.0054 33.7128 35.2063 34.7979 36.0072 35.3959C36.808 35.9939 37.9055 35.8783 38.4585 35.1377C39.0113 34.3972 38.8104 33.3121 38.0095 32.7141C37.2087 32.1163 36.1113 32.2317 35.5583 32.9723Z" fill="#FFD200"/>
<path d="M37.1389 35.8559C36.735 35.8559 36.3188 35.7259 35.9608 35.4585C35.5577 35.1576 35.287 34.7291 35.1986 34.2519C35.1098 33.7725 35.2155 33.3013 35.4961 32.9257C35.7766 32.5499 36.1982 32.3148 36.6832 32.2637C37.1645 32.213 37.6535 32.3508 38.0566 32.6517C38.8908 33.2744 39.0992 34.4108 38.5215 35.1846C38.1917 35.6262 37.676 35.8559 37.1389 35.8559ZM36.88 32.4097C36.8198 32.4097 36.7597 32.4128 36.6997 32.4192C36.2585 32.4656 35.8757 32.6786 35.6214 33.0191C35.3672 33.3598 35.2717 33.7875 35.3524 34.2234C35.4336 34.6619 35.6829 35.056 36.0543 35.3335C36.8194 35.9045 37.8701 35.7959 38.3964 35.0913C38.9225 34.3864 38.7283 33.3484 37.9634 32.7769C37.6421 32.5372 37.2631 32.4097 36.88 32.4097Z" fill="black"/>
<path d="M37.2415 32.9653C37.6331 33.5775 36.6823 34.1872 36.2899 33.5739C35.8985 32.9615 36.8493 32.352 37.2415 32.9653Z" fill="white"/>
<path d="M34.5953 0.000767635L33.0137 0.449219L35.3173 8.57345L36.8988 8.125L34.5953 0.000767635Z" fill="#009CF7"/>
<path d="M15.2647 12.1427L14.3086 13.479L20.6296 18.0015L21.5857 16.6652L15.2647 12.1427Z" fill="#009CF7"/>
<path d="M24.0613 3.95197L22.6387 4.7749L27.1783 12.6229L28.6009 11.7999L24.0613 3.95197Z" fill="#009CF7"/>
</g>
<defs>
<clipPath id="clip0_4001_2318">
<rect width="80" height="80" fill="white"/>
</clipPath>
</defs>
</svg>
