<svg width="81" height="80" viewBox="0 0 81 80" fill="none" xmlns="http://www.w3.org/2000/svg">
<g clip-path="url(#clip0_4001_2206)">
<path d="M66.9753 78.7133H13.0664C13.0664 78.7133 18.7862 68.845 27.4103 70.0806C36.0342 71.3163 35.172 75.0449 41.9305 73.8281C46.7569 72.9592 45.6017 71.3944 51.2745 69.3727C59.2492 66.5306 66.9753 78.7133 66.9753 78.7133Z" fill="#F4F1E3"/>
<path d="M73.4524 18.9511C73.4018 18.9511 73.352 18.9277 73.3196 18.8838C73.2662 18.8106 73.2821 18.7077 73.3554 18.6544C73.4631 18.5672 74.1535 17.8519 74.4767 17.4722C74.0964 17.5249 73.3931 17.6585 72.7532 17.7952C72.6639 17.8116 72.5771 17.7574 72.5584 17.6688C72.5393 17.5799 72.5959 17.4927 72.6846 17.4738C74.8743 17.0061 74.9015 17.0938 74.9504 17.2525C75.0343 17.5225 73.5649 18.9081 73.5492 18.9194C73.5199 18.941 73.4859 18.9511 73.4524 18.9511Z" fill="#241726"/>
<path d="M70.9189 18.9931C70.9189 18.9931 71.078 16.4337 72.4133 16.899C74.263 17.5436 75.1136 22.312 71.6216 23.347C68.1297 24.382 66.8711 21.51 66.8711 21.51L68.7469 21.0797C68.7469 21.0797 67.4042 19.8661 67.5312 18.8723C67.6583 17.8786 68.7073 18.7544 68.7073 18.7544C68.7073 18.7544 67.482 16.4626 68.5006 16.3953C69.5191 16.3281 70.9189 18.9931 70.9189 18.9931Z" fill="#B1739A"/>
<path d="M72.4937 18.6936C72.1367 18.6936 71.7898 18.1708 71.6901 18.0076C71.6428 17.9299 71.6673 17.829 71.7448 17.7818C71.8218 17.7343 71.9231 17.7586 71.9704 17.8363C72.1078 18.0608 72.3231 18.3046 72.4487 18.3555C72.4503 18.219 72.3568 17.8821 72.2297 17.5822C72.1943 17.4988 72.2334 17.4024 72.3167 17.3671C72.4003 17.3318 72.4965 17.3704 72.532 17.454C72.6658 17.7693 72.8686 18.3333 72.724 18.5688C72.6787 18.6429 72.6056 18.6868 72.5181 18.6929C72.51 18.6936 72.5018 18.6936 72.4937 18.6936Z" fill="#241726"/>
<path d="M69.3396 21.0711C69.3027 21.0711 69.2655 21.0586 69.2349 21.0333C69.1346 20.9498 68.2583 20.2026 68.3216 19.5887C68.3427 19.3858 68.4602 19.3103 68.5283 19.2834C68.7293 19.2042 69.0191 19.3434 69.2632 19.5067C69.1512 18.8778 69.2094 18.5223 69.4382 18.4483C69.5355 18.4162 69.8318 18.3212 70.9183 20.0134C70.9673 20.0898 70.9451 20.1914 70.8688 20.2404C70.7923 20.2895 70.6908 20.267 70.6419 20.1911C70.2479 19.5772 69.7298 18.895 69.5335 18.7789C69.5069 18.9004 69.5599 19.3953 69.678 19.8703C69.6952 19.9395 69.6655 20.0123 69.6044 20.0497C69.5433 20.0872 69.4654 20.0811 69.411 20.0339C69.1174 19.7789 68.7543 19.5618 68.6537 19.5878C68.6543 19.5908 68.6508 19.6022 68.6487 19.6228C68.6141 19.9547 69.1188 20.5092 69.4451 20.7806C69.5146 20.8386 69.5243 20.9423 69.4662 21.0118C69.4335 21.0509 69.3868 21.0711 69.3396 21.0711Z" fill="#241726"/>
<path d="M70.8762 22.7548C70.3749 22.7548 70.0057 22.6566 69.9762 22.6487C69.8888 22.6246 69.8374 22.5345 69.8613 22.447C69.8852 22.3598 69.9754 22.309 70.0629 22.3318C70.0757 22.3357 71.352 22.6718 72.3312 22.0348C72.9205 21.6512 73.2909 20.9896 73.432 20.0684C73.4454 19.9785 73.5273 19.9166 73.6191 19.9307C73.7088 19.9445 73.7704 20.0282 73.7566 20.1177C73.6007 21.137 73.1807 21.8749 72.508 22.3115C71.9659 22.6634 71.3596 22.7548 70.8762 22.7548Z" fill="#241726"/>
<path d="M2.16553 40.4582C2.13272 40.4582 2.09944 40.4482 2.07069 40.4271C2.05491 40.4156 0.586002 39.0288 0.66944 38.7596C0.72069 38.5967 0.746002 38.5146 2.93538 38.9812C3.02413 39.0001 3.08053 39.0873 3.06163 39.1762C3.04272 39.2648 2.95538 39.3199 2.86678 39.3026C2.22694 39.166 1.52397 39.0323 1.14335 38.9796C1.46663 39.3593 2.15741 40.0753 2.2671 40.1637C2.33631 40.2198 2.35022 40.3224 2.29585 40.3934C2.26335 40.4357 2.21475 40.4582 2.16553 40.4582Z" fill="#241726"/>
<path d="M4.69938 40.5009C4.69938 40.5009 4.54031 37.9415 3.205 38.4069C1.35531 39.0514 0.50469 43.8198 3.99672 44.8548C7.4886 45.8898 8.74719 43.0178 8.74719 43.0178L6.87157 42.5875C6.87157 42.5875 8.21422 41.3739 8.08719 40.3801C7.96016 39.3865 6.9111 40.2622 6.9111 40.2622C6.9111 40.2622 8.13641 37.9704 7.11782 37.9031C6.09922 37.8359 4.69938 40.5009 4.69938 40.5009Z" fill="#B1739A"/>
<path d="M3.12385 40.2018C3.11588 40.2018 3.1076 40.2018 3.09963 40.2011C3.01213 40.1951 2.93901 40.1511 2.89354 40.0771C2.74901 39.8416 2.95197 39.2775 3.08557 38.9619C3.12119 38.8782 3.2176 38.8394 3.30088 38.875C3.38432 38.9104 3.42322 39.0066 3.38791 39.0902C3.26072 39.3904 3.16729 39.7272 3.16885 39.8638C3.29479 39.8129 3.5101 39.5691 3.64713 39.3443C3.69463 39.2666 3.79588 39.2426 3.87276 39.2897C3.95026 39.3369 3.97479 39.4379 3.92744 39.5155C3.82807 39.6786 3.48072 40.2018 3.12385 40.2018Z" fill="#241726"/>
<path d="M6.27855 42.5789C6.23136 42.5789 6.18464 42.5588 6.15214 42.5195C6.09418 42.45 6.10371 42.3463 6.17339 42.2883C6.49964 42.0169 7.00402 41.4625 6.96964 41.1305C6.96652 41.1 6.95996 41.0897 6.95996 41.0897C6.87449 41.065 6.50527 41.2831 6.20714 41.5416C6.15277 41.5885 6.07433 41.5949 6.01371 41.5574C5.95261 41.5202 5.92293 41.4474 5.94011 41.3777C6.05183 40.928 6.10543 40.4608 6.06886 40.2969C5.86199 40.4377 5.36027 41.101 4.97621 41.6991C4.92699 41.775 4.82543 41.7975 4.74933 41.7485C4.67308 41.6994 4.65089 41.5977 4.6998 41.5214C5.78683 39.828 6.08214 39.9239 6.17996 39.9563C6.40871 40.0303 6.46714 40.3856 6.35496 41.0144C6.59933 40.8514 6.88964 40.7116 7.08996 40.7911C7.15793 40.818 7.27527 40.8935 7.29652 41.0964C7.3598 41.7103 6.48371 42.4575 6.38339 42.541C6.35277 42.5664 6.31543 42.5789 6.27855 42.5789Z" fill="#241726"/>
<path d="M4.74356 44.2626C4.26028 44.2626 3.65403 44.1712 3.112 43.8193C2.43934 43.3827 2.01919 42.6448 1.86325 41.6256C1.8495 41.536 1.91106 41.4524 2.00075 41.4385C2.09122 41.4245 2.17419 41.4863 2.18794 41.5762C2.32903 42.4976 2.69934 43.1593 3.28887 43.5426C4.26778 44.1795 5.5445 43.843 5.55715 43.8396C5.64481 43.8165 5.73497 43.8676 5.75872 43.9548C5.78262 44.0423 5.73137 44.1324 5.64387 44.1565C5.61434 44.1645 5.24497 44.2626 4.74356 44.2626Z" fill="#241726"/>
<path d="M10.1753 17.7531C10.1753 17.7531 11.1855 14.7565 11.6188 15.066C12.0522 15.3754 11.9433 15.8957 11.9433 15.8957C11.9433 15.8957 13.2035 14.2676 13.8866 14.6657C14.5696 15.0639 13.9024 15.872 13.9024 15.872C13.9024 15.872 16.0172 14.3715 16.3508 15.1576C16.6844 15.9437 14.7775 17.5496 14.7775 17.5496C14.7775 17.5496 15.878 16.8685 16.1064 17.7912C16.3349 18.7139 14.4874 18.9365 14.3725 18.9359C14.2577 18.9354 14.9761 18.9034 14.7607 19.5145C14.5452 20.1254 8.7319 20.4403 10.1753 17.7531Z" fill="#51AEA5"/>
<path d="M7.50703 21.0492C7.50703 21.0492 4.67594 22.4579 4.5875 21.9327C4.49907 21.4076 4.94344 21.116 4.94344 21.116C4.94344 21.116 2.90141 21.3792 2.69875 20.6149C2.4961 19.8507 3.53922 19.7496 3.53922 19.7496C3.53922 19.7496 0.982191 19.319 1.30094 18.5267C1.61969 17.7345 4.10407 17.9437 4.10407 17.9437C4.10407 17.9437 2.84391 17.649 3.3336 16.8343C3.82328 16.0196 5.28875 17.1665 5.36969 17.2479C5.45063 17.3293 4.91922 16.8446 5.50328 16.5642C6.0875 16.2837 10.4264 20.1656 7.50703 21.0492Z" fill="#51AEA5"/>
<path d="M10.8936 20.5759C10.8936 20.5759 13.5304 22.3214 13.12 22.6609C12.7097 23.0003 12.2349 22.7616 12.2349 22.7616C12.2349 22.7616 13.4849 24.3975 12.9249 24.9555C12.3647 25.5134 11.755 24.6611 11.755 24.6611C11.755 24.6611 12.6622 27.0902 11.8169 27.2109C10.9716 27.3316 9.90895 25.0763 9.90895 25.0763C9.90895 25.0763 10.2847 26.3147 9.33426 26.2986C8.38379 26.2825 8.64301 24.4398 8.67301 24.3289C8.70301 24.2181 8.54942 24.9206 8.0141 24.5555C7.47879 24.1903 8.66707 18.4911 10.8936 20.5759Z" fill="#51AEA5"/>
<path d="M11.6085 18.7081C11.3017 18.6439 10.9972 18.6592 10.7147 18.7378C10.8392 17.7669 10.1992 16.848 9.2247 16.6441C8.20048 16.4297 7.19626 17.0864 6.98204 18.1106C6.85329 18.7263 7.04064 19.3335 7.43189 19.7674C6.74939 19.938 6.18845 20.4814 6.0347 21.2163C5.82033 22.2405 6.47704 23.2447 7.50126 23.4589C8.52564 23.6733 9.5297 23.0166 9.74392 21.9924C9.75845 21.9231 9.76814 21.8541 9.77486 21.7853C10.0381 22.097 10.402 22.3274 10.8322 22.4175C11.8566 22.6319 12.8606 21.9752 13.0749 20.951C13.2894 19.9266 12.6328 18.9225 11.6085 18.7081ZM9.34251 20.3236C9.34001 20.343 9.33673 20.3624 9.33501 20.3817C9.32173 20.3661 9.30798 20.3508 9.29439 20.3356C9.31033 20.3316 9.32658 20.3281 9.34251 20.3236Z" fill="#D45A41"/>
<path d="M6.90973 19.8187C6.87785 19.8187 6.84551 19.8095 6.81723 19.7901C5.67926 19.0128 3.54535 19.1086 3.52379 19.1082C3.43051 19.1182 3.35598 19.0428 3.35176 18.9525C3.34738 18.862 3.41723 18.785 3.50785 18.7806C3.59957 18.7757 5.77285 18.6792 7.00269 19.5189C7.07754 19.5701 7.09676 19.6722 7.04566 19.7473C7.01363 19.7937 6.96207 19.8187 6.90973 19.8187Z" fill="#241726"/>
<path d="M11.6074 18.8721C11.5303 18.8721 11.4616 18.8175 11.4464 18.7392C11.4291 18.65 11.4872 18.5638 11.5761 18.5464C12.275 18.4105 13.4852 16.8803 13.8927 16.3021C13.9449 16.2283 14.0469 16.21 14.1216 16.2622C14.1956 16.3144 14.2135 16.4171 14.1613 16.4911C14.0036 16.715 12.5936 18.683 11.6391 18.8689C11.6283 18.8711 11.6178 18.8721 11.6074 18.8721Z" fill="#241726"/>
<path d="M10.6702 25.2853C10.5806 25.2853 10.5074 25.2134 10.506 25.1236C10.4964 24.5517 10.3585 23.0008 9.84048 22.6947C9.76236 22.6484 9.73658 22.5478 9.78252 22.4698C9.82877 22.3915 9.92923 22.3662 10.0075 22.4117C10.7756 22.8656 10.8306 24.889 10.8344 25.1183C10.8358 25.2087 10.7635 25.2834 10.6728 25.285C10.6719 25.2853 10.671 25.2853 10.6702 25.2853Z" fill="#241726"/>
<path d="M10.7485 18.7329C10.6635 18.7015 10.5693 18.7448 10.5375 18.8301C10.5337 18.8401 10.1482 19.8551 9.33464 20.0135C9.30636 20.0191 9.28292 20.0332 9.26245 20.0505C9.22136 20.022 9.1812 19.9927 9.13526 19.9668C8.49433 19.6043 7.95136 19.4838 7.5212 19.6109C7.1487 19.7205 7.00651 19.9743 6.99136 20.0027C6.94964 20.0823 6.98011 20.1794 7.05901 20.2221C7.13761 20.2654 7.23698 20.2355 7.2812 20.1573C7.28511 20.1505 7.37683 19.9918 7.62479 19.9224C7.85917 19.8582 8.28292 19.8615 8.97354 20.2527C9.84698 20.7466 9.59542 21.9066 9.58433 21.9557C9.56433 22.0438 9.61948 22.1321 9.70776 22.1523C9.72011 22.1548 9.73245 22.1565 9.74448 22.1565C9.81933 22.1565 9.88683 22.1052 9.90433 22.0291C9.91573 21.9795 10.1331 20.9785 9.54073 20.2985C10.435 20.0285 10.8287 18.9898 10.8457 18.9434C10.877 18.8585 10.8335 18.7643 10.7485 18.7329Z" fill="#241726"/>
<path d="M10.0727 18.256C10.0037 18.256 9.9393 18.2121 9.91664 18.1427C9.69836 17.4769 8.93102 17.533 8.92383 17.5327C8.8318 17.5413 8.75414 17.473 8.74664 17.3825C8.7393 17.2921 8.80649 17.2128 8.89695 17.2055C9.25336 17.1728 9.99024 17.313 10.2288 18.0407C10.2571 18.1266 10.2101 18.2192 10.124 18.2478C10.107 18.2533 10.0896 18.256 10.0727 18.256Z" fill="#FBFCFF"/>
<path d="M12.5523 20.6822C12.4804 20.6822 12.4143 20.6344 12.3941 20.5619C12.2577 20.0693 11.5404 19.7679 11.5332 19.7646C11.4495 19.7302 11.4096 19.6341 11.444 19.5504C11.4785 19.4666 11.5743 19.4269 11.6581 19.4608C11.6935 19.4755 12.531 19.8258 12.7107 20.474C12.7349 20.5615 12.6837 20.6519 12.5962 20.676C12.5816 20.6802 12.5668 20.6822 12.5523 20.6822Z" fill="#FBFCFF"/>
<path d="M9.09164 21.644C9.0018 21.644 8.92851 21.5718 8.92742 21.4816C8.92617 21.3726 8.88695 21.2832 8.80805 21.2083C8.55664 20.9704 7.97492 20.938 7.77086 20.9488C7.68383 20.9521 7.60383 20.8824 7.59976 20.7916C7.59586 20.7012 7.66617 20.6246 7.75664 20.6204C7.79258 20.6204 8.62883 20.5868 9.03351 20.9693C9.17867 21.1066 9.25336 21.2776 9.25601 21.4776C9.25711 21.568 9.18445 21.6424 9.09383 21.6437C9.09305 21.644 9.09226 21.644 9.09164 21.644Z" fill="#FBFCFF"/>
<path d="M71.0669 56.2255C71.0669 56.2255 68.3119 54.6733 68.6968 54.3053C69.0816 53.9374 69.5724 54.1416 69.5724 54.1416C69.5724 54.1416 68.2083 52.5994 68.7271 52.0027C69.2457 51.4061 69.915 52.2125 69.915 52.2125C69.915 52.2125 68.8361 49.8547 69.6707 49.6738C70.5052 49.4928 71.7266 51.6663 71.7266 51.6663C71.7266 51.6663 71.2632 50.458 72.2122 50.406C73.1613 50.3539 73.0349 52.2105 73.0129 52.3232C72.9908 52.4358 73.0938 51.7241 73.6538 52.0499C74.214 52.3758 73.4371 58.1455 71.0669 56.2255Z" fill="#51AEA5"/>
<path d="M73.8072 59.4625C73.8072 59.4625 74.6622 62.5069 74.1299 62.4956C73.5975 62.4844 73.3941 61.9933 73.3941 61.9933C73.3941 61.9933 73.2711 64.0484 72.4825 64.1049C71.6939 64.1611 71.7894 63.1175 71.7894 63.1175C71.7894 63.1175 70.8886 65.5491 70.1699 65.0878C69.4511 64.6267 70.1208 62.2252 70.1208 62.2252C70.1208 62.2252 69.5959 63.4081 68.887 62.7749C68.1781 62.1416 69.5786 60.9161 69.6738 60.8519C69.7689 60.7875 69.1934 61.2191 69.027 60.5928C68.8605 59.9666 73.4845 56.4292 73.8072 59.4625Z" fill="#51AEA5"/>
<path d="M73.9754 56.0462C73.9754 56.0462 76.1827 53.7819 76.4396 54.2484C76.6965 54.7148 76.373 55.1368 76.373 55.1368C76.373 55.1368 78.2138 54.2144 78.6572 54.8688C79.1007 55.5234 78.1494 55.9632 78.1494 55.9632C78.1494 55.9632 80.7052 55.5257 80.6658 56.3788C80.6265 57.2319 78.2122 57.8543 78.2122 57.8543C78.2122 57.8543 79.499 57.7165 79.3057 58.6471C79.1122 59.5777 77.3505 58.979 77.2472 58.9288C77.144 58.8787 77.8055 59.1609 77.3468 59.6184C76.8882 60.076 71.5111 57.844 73.9754 56.0462Z" fill="#51AEA5"/>
<path d="M75.1512 57.4414C75.0859 57.4142 75.0199 57.3917 74.9535 57.3724C75.3088 57.1721 75.6032 56.8575 75.7721 56.4516C76.174 55.4853 75.7165 54.3763 74.7504 53.9744C73.7841 53.5725 72.6751 54.03 72.2732 54.9961C72.1529 55.2855 72.111 55.5875 72.1354 55.8797C71.2048 55.576 70.1824 56.033 69.8001 56.9524C69.3982 57.9186 69.8557 59.0277 70.8218 59.4296C71.4026 59.6711 72.034 59.6003 72.5334 59.2971C72.5735 59.9994 73.0026 60.6521 73.6957 60.9403C74.662 61.3422 75.771 60.8847 76.1729 59.9185C76.5749 58.9524 76.1174 57.8433 75.1512 57.4414ZM73.4368 57.5242C73.4554 57.5303 73.4738 57.5371 73.4924 57.5425C73.4746 57.5525 73.457 57.5631 73.4395 57.5739C73.4387 57.5574 73.4382 57.5407 73.4368 57.5242Z" fill="#D45A41"/>
<path d="M70.8285 63.0995C70.821 63.0995 70.8132 63.0989 70.8055 63.098C70.7157 63.0855 70.6532 63.0023 70.6657 62.9127C70.6783 62.8216 70.9889 60.6686 72.0441 59.6172C72.1085 59.5533 72.2124 59.5533 72.2763 59.6178C72.3405 59.6819 72.3402 59.7859 72.276 59.85C71.2994 60.8228 70.9939 62.937 70.9908 62.9581C70.9794 63.0402 70.9091 63.0995 70.8285 63.0995Z" fill="#241726"/>
<path d="M72.2736 55.1604C72.1831 55.1604 72.1097 55.0873 72.1094 54.9968C72.1063 54.2845 70.8292 52.8098 70.3372 52.3018C70.2742 52.2366 70.2758 52.1327 70.3411 52.0696C70.4066 52.0068 70.5105 52.008 70.5733 52.0735C70.7636 52.2701 72.4336 54.0229 72.4378 54.9957C72.4381 55.0865 72.365 55.1602 72.2742 55.1605L72.2736 55.1604Z" fill="#241726"/>
<path d="M75.7345 57.5335C75.6959 57.5335 75.6572 57.52 75.6261 57.4924C75.5579 57.4327 75.5514 57.3288 75.6112 57.2608C76.2007 56.5911 78.1992 56.9153 78.4248 56.9546C78.5142 56.9699 78.5739 57.0549 78.5586 57.1441C78.5431 57.2336 78.4587 57.2961 78.3687 57.2778C77.8054 57.1806 76.2551 57.0261 75.8579 57.4777C75.8253 57.5146 75.7801 57.5335 75.7345 57.5335Z" fill="#241726"/>
<path d="M75.2174 57.2913C75.1707 57.2707 74.2278 56.87 73.4493 57.3252C73.3515 56.3964 72.4043 55.8157 72.362 55.79C72.284 55.7438 72.1835 55.7678 72.1368 55.8461C72.0901 55.9238 72.1151 56.0247 72.1927 56.0716C72.2021 56.0771 73.1273 56.6453 73.1309 57.4741C73.131 57.503 73.1406 57.5286 73.1537 57.5522C73.1179 57.5874 73.0817 57.6213 73.0474 57.6617C72.5712 58.2239 72.3521 58.7349 72.396 59.1807C72.4342 59.5671 72.657 59.7541 72.6821 59.7742C72.7121 59.798 72.7478 59.8096 72.7831 59.8096C72.8307 59.8096 72.8779 59.7886 72.9104 59.7489C72.9673 59.6794 72.957 59.5764 72.8882 59.5186C72.8823 59.5135 72.7434 59.3936 72.722 59.1369C72.7017 58.895 72.7851 58.4794 73.2979 57.8739C73.9465 57.1077 75.0395 57.5717 75.0854 57.5921C75.1695 57.6286 75.2656 57.5902 75.3015 57.5074C75.3381 57.4244 75.3004 57.3278 75.2174 57.2913Z" fill="#241726"/>
<path d="M70.4534 57.5606C70.4476 57.5606 70.4417 57.5603 70.4359 57.5597C70.3456 57.55 70.2805 57.4692 70.29 57.3791C70.3278 57.0234 70.6 56.3252 71.3589 56.2267C71.4486 56.2139 71.5312 56.2784 71.5428 56.3684C71.5545 56.4586 71.4911 56.5406 71.4012 56.5525C70.7066 56.6427 70.6172 57.4059 70.6164 57.4136C70.6075 57.4981 70.5362 57.5606 70.4534 57.5606Z" fill="#FBFCFF"/>
<path d="M73.1582 55.3416C73.1274 55.3416 73.0963 55.333 73.0685 55.3147C72.9927 55.2654 72.9713 55.1637 73.0207 55.088C73.0417 55.0557 73.5423 54.2983 74.2127 54.2432C74.3042 54.2362 74.3824 54.3029 74.3899 54.3933C74.3973 54.4838 74.3301 54.563 74.2396 54.5704C73.7301 54.6124 73.3001 55.2608 73.2957 55.2672C73.2645 55.3154 73.2118 55.3416 73.1582 55.3416Z" fill="#FBFCFF"/>
<path d="M73.5941 59.3245C73.5863 59.3245 73.5782 59.3238 73.5702 59.3226C73.4805 59.3098 73.4183 59.2263 73.4314 59.1365C73.4364 59.1015 73.5614 58.273 74.0127 57.9473C74.1744 57.8309 74.3563 57.7888 74.5532 57.8241C74.6425 57.8399 74.7019 57.9252 74.6861 58.0143C74.6702 58.1038 74.5864 58.1618 74.4958 58.1474C74.3877 58.1282 74.2932 58.1499 74.2053 58.2135C73.9242 58.4159 73.786 58.9826 73.7563 59.184C73.7444 59.2657 73.6742 59.3245 73.5941 59.3245Z" fill="#FBFCFF"/>
<path d="M27.5169 72.1554C27.4716 72.1554 27.4265 72.1368 27.3941 72.1003C27.3738 72.0775 26.8976 71.5621 26.1505 71.9162C26.0688 71.9543 25.9708 71.9201 25.9319 71.8379C25.893 71.7562 25.9279 71.6581 26.0101 71.6192C26.7912 71.2496 27.4179 71.6298 27.6404 71.8828C27.7004 71.951 27.6937 72.0546 27.6255 72.1146C27.594 72.142 27.5554 72.1554 27.5169 72.1554Z" fill="#241726"/>
<path d="M26.222 73.1232C26.1767 73.1232 26.1315 73.1046 26.0992 73.068C26.0789 73.0449 25.6028 72.5293 24.8556 72.884C24.774 72.9221 24.6756 72.8879 24.637 72.8057C24.5981 72.724 24.6329 72.6259 24.7151 72.5869C25.4961 72.2174 26.1229 72.5976 26.3453 72.8505C26.4053 72.9188 26.3986 73.0224 26.3304 73.0824C26.2992 73.1098 26.2604 73.1232 26.222 73.1232Z" fill="#241726"/>
<path d="M24.0443 72.9377C23.999 72.9377 23.9538 72.9191 23.9215 72.8825C23.9013 72.8597 23.4263 72.3433 22.6779 72.6982C22.5962 72.7366 22.4982 72.7017 22.4592 72.6199C22.4204 72.5382 22.4554 72.44 22.5374 72.4011C23.3182 72.031 23.9454 72.4121 24.1677 72.665C24.2277 72.7333 24.221 72.8369 24.1529 72.8969C24.1215 72.9242 24.0827 72.9377 24.0443 72.9377Z" fill="#241726"/>
<path d="M21.8519 72.0547C21.8038 72.0547 21.7561 72.0339 21.7238 71.9934C21.667 71.9228 21.678 71.8192 21.7488 71.7625C22.4314 71.2134 23.1183 71.4414 23.3858 71.6391C23.4589 71.693 23.4745 71.7956 23.4206 71.8688C23.3672 71.9413 23.2649 71.9574 23.1916 71.9041C23.1666 71.8858 22.6052 71.4949 21.9547 72.0186C21.9244 72.0428 21.888 72.0547 21.8519 72.0547Z" fill="#241726"/>
<path d="M24.223 71.8744C24.1724 71.8744 24.1224 71.8509 24.0902 71.807C24.0368 71.7339 24.0527 71.6309 24.126 71.5777C24.831 71.0619 25.5083 71.3217 25.7682 71.5311C25.8388 71.5881 25.8497 71.6914 25.7928 71.762C25.7364 71.8325 25.6332 71.8434 25.5627 71.7873C25.5393 71.7691 24.9925 71.3511 24.3196 71.8425C24.2905 71.8642 24.2566 71.8744 24.223 71.8744Z" fill="#241726"/>
<path d="M21.3636 73.8065C21.313 73.8065 21.2632 73.7831 21.2308 73.7392C21.1774 73.666 21.1933 73.5631 21.2666 73.5098C21.9718 72.994 22.6489 73.2538 22.9088 73.4632C22.9794 73.5203 22.9903 73.6235 22.9335 73.6942C22.8771 73.7648 22.7741 73.7756 22.7033 73.7195C22.6802 73.7018 22.1332 73.2829 21.4602 73.7746C21.4311 73.7964 21.3972 73.8065 21.3636 73.8065Z" fill="#241726"/>
<path d="M19.9709 73.0504C19.9289 73.0504 19.8867 73.0343 19.8546 73.0023C19.7906 72.9381 19.7906 72.8338 19.855 72.7701C20.4787 72.147 21.1828 72.2996 21.4671 72.467C21.5454 72.5128 21.5714 72.6135 21.5253 72.6918C21.4796 72.7695 21.3792 72.796 21.3011 72.7503C21.2734 72.7342 20.6817 72.4093 20.0868 73.0023C20.055 73.0345 20.0129 73.0504 19.9709 73.0504Z" fill="#241726"/>
<path d="M58.0697 71.556C58.0244 71.556 57.9792 71.5374 57.9469 71.5008C57.9267 71.478 57.4508 70.962 56.7033 71.3167C56.6212 71.3549 56.5234 71.3206 56.4847 71.2385C56.4458 71.1567 56.4806 71.0585 56.5628 71.0197C57.3434 70.6499 57.9708 71.0303 58.1931 71.2833C58.2531 71.3516 58.2464 71.4552 58.1783 71.5152C58.1469 71.5425 58.1083 71.556 58.0697 71.556Z" fill="#241726"/>
<path d="M56.7747 72.5236C56.7294 72.5236 56.6843 72.505 56.6519 72.4684C56.6316 72.4456 56.1554 71.9297 55.4083 72.2844C55.3266 72.3225 55.2287 72.2883 55.1897 72.2061C55.1508 72.1244 55.1857 72.0261 55.2679 71.9873C56.0485 71.6178 56.6757 71.998 56.8982 72.2509C56.9582 72.3192 56.9515 72.4228 56.8832 72.4828C56.8518 72.51 56.8132 72.5236 56.7747 72.5236Z" fill="#241726"/>
<path d="M54.5969 72.338C54.5515 72.338 54.5064 72.3194 54.474 72.2829C54.4537 72.2601 53.9781 71.7441 53.2308 72.0988C53.1486 72.1369 53.0511 72.1027 53.012 72.0205C52.9731 71.9388 53.0079 71.8405 53.09 71.8018C53.8709 71.4323 54.4978 71.8124 54.7203 72.0654C54.7803 72.1337 54.7736 72.2373 54.7053 72.2973C54.674 72.3246 54.6355 72.338 54.5969 72.338Z" fill="#241726"/>
<path d="M52.4046 71.455C52.3564 71.455 52.3088 71.4342 52.2764 71.3937C52.2197 71.3231 52.2308 71.2195 52.3014 71.1628C52.9836 70.614 53.6711 70.8417 53.9386 71.0393C54.0118 71.0932 54.0272 71.1959 53.9735 71.269C53.9202 71.3418 53.8174 71.3575 53.7446 71.3043C53.7193 71.2864 53.1582 70.8948 52.5074 71.4189C52.4771 71.4431 52.4407 71.455 52.4046 71.455Z" fill="#241726"/>
<path d="M54.7757 71.2748C54.7251 71.2748 54.6753 71.2513 54.6429 71.2074C54.5895 71.1343 54.6054 71.0313 54.6787 70.978C55.3839 70.4623 56.0609 70.7221 56.3209 70.9315C56.3915 70.9885 56.4025 71.0918 56.3456 71.1624C56.289 71.233 56.186 71.2438 56.1154 71.1877C56.0925 71.1701 55.5456 70.7512 54.8723 71.2429C54.8432 71.2645 54.8092 71.2748 54.7757 71.2748Z" fill="#241726"/>
<path d="M51.9164 73.2069C51.8657 73.2069 51.8159 73.1835 51.7835 73.1396C51.7301 73.0664 51.746 72.9635 51.8193 72.9102C52.5243 72.3944 53.202 72.6542 53.4614 72.8636C53.5321 72.9206 53.5431 73.0239 53.4862 73.0946C53.4296 73.1649 53.3267 73.1763 53.256 73.1199C53.2329 73.1016 52.6865 72.6833 52.0129 73.175C51.9839 73.1966 51.9498 73.2069 51.9164 73.2069Z" fill="#241726"/>
<path d="M50.5236 72.451C50.4816 72.451 50.4394 72.4349 50.4074 72.4029C50.3433 72.3388 50.3433 72.2344 50.4077 72.1707C51.0318 71.5469 51.7354 71.7002 52.0199 71.8676C52.098 71.9134 52.1239 72.0141 52.078 72.0924C52.0321 72.1701 51.9314 72.196 51.8541 72.1512C51.8289 72.1368 51.2363 71.808 50.6396 72.4029C50.6075 72.4349 50.5657 72.451 50.5236 72.451Z" fill="#241726"/>
<path d="M6.33562 67.4599C6.20672 67.4599 6.07734 67.4502 5.95063 67.4313C5.86094 67.4182 5.79906 67.3344 5.81234 67.2449C5.82578 67.155 5.90937 67.0938 5.99906 67.1066C6.2 67.1361 6.4075 67.1383 6.61063 67.1152C6.70094 67.1058 6.78219 67.1694 6.7925 67.2596C6.80297 67.3497 6.73828 67.4311 6.64812 67.4418C6.54437 67.4538 6.44016 67.4599 6.33562 67.4599ZM7.26734 67.293C7.19969 67.293 7.13609 67.251 7.1125 67.1833C7.08234 67.0977 7.12719 67.0041 7.21281 66.9739C7.40141 66.9075 7.59234 66.8191 7.78063 66.711C7.85938 66.6661 7.95969 66.6927 8.00484 66.7716C8.05 66.8502 8.02281 66.9505 7.94422 66.9958C7.73859 67.1138 7.52922 67.2107 7.32188 67.2838C7.30391 67.2902 7.28547 67.293 7.26734 67.293ZM5.34563 67.2524C5.32391 67.2524 5.30156 67.2479 5.28 67.2386C5.07437 67.1488 4.87313 67.0314 4.68203 66.8894C4.60922 66.8352 4.59422 66.7325 4.64813 66.6597C4.70234 66.5866 4.80516 66.5719 4.87797 66.6257C5.04906 66.7527 5.22844 66.8579 5.41156 66.9377C5.49469 66.9739 5.53266 67.0708 5.49625 67.1538C5.46938 67.2155 5.40906 67.2524 5.34563 67.2524ZM8.40453 66.6478C8.35609 66.6478 8.30828 66.6268 8.27578 66.586C8.21938 66.5147 8.23125 66.4114 8.30219 66.355C8.46438 66.2261 8.6225 66.0824 8.77219 65.9278C8.83531 65.8624 8.93922 65.8611 9.00438 65.9239C9.06969 65.9871 9.07125 66.091 9.00828 66.1561C8.84859 66.321 8.67984 66.4743 8.50656 66.6122C8.47641 66.6363 8.44031 66.6478 8.40453 66.6478ZM4.29188 66.4836C4.24813 66.4836 4.20453 66.4663 4.17203 66.4316C4.02453 66.2744 3.88031 66.0977 3.74359 65.9066C3.69078 65.8328 3.70781 65.7302 3.78156 65.6772C3.85563 65.6246 3.95797 65.6416 4.01078 65.7153C4.13906 65.895 4.27391 66.0605 4.41156 66.2071C4.47375 66.2732 4.47047 66.3771 4.40438 66.4389C4.37266 66.4688 4.33219 66.4836 4.29188 66.4836ZM9.3175 65.7071C9.28297 65.7071 9.24828 65.6961 9.21875 65.6736C9.14625 65.6191 9.13203 65.5161 9.18672 65.4436C9.31656 65.2718 9.43469 65.0933 9.53734 64.9135C9.58203 64.8349 9.68234 64.8077 9.76141 64.8522C9.84016 64.8974 9.8675 64.9975 9.8225 65.0764C9.71281 65.2685 9.58703 65.4588 9.44875 65.6419C9.41641 65.6847 9.36719 65.7071 9.3175 65.7071ZM3.52531 65.4213C3.46781 65.4213 3.41172 65.3908 3.38172 65.3369C3.26891 65.1349 3.17328 64.9261 3.09703 64.7169C3.06594 64.6316 3.10984 64.5377 3.19516 64.5066C3.28031 64.4755 3.37469 64.5194 3.40562 64.6047C3.47578 64.7975 3.56438 64.9902 3.66844 65.1772C3.71266 65.2564 3.68422 65.3564 3.605 65.4005C3.57984 65.4146 3.55234 65.4213 3.52531 65.4213ZM3.08141 64.1916C3.00297 64.1916 2.93375 64.1355 2.91969 64.0557C2.88281 63.843 2.86406 63.6269 2.86406 63.4122L3.02859 63.3735L3.19266 63.3939C3.1925 63.6079 3.20969 63.8055 3.24328 63.9991C3.25891 64.0886 3.19906 64.1736 3.10953 64.1889C3.10016 64.191 3.09063 64.1916 3.08141 64.1916ZM3.09484 62.8853C3.08453 62.8853 3.07438 62.8844 3.06391 62.8825C2.97469 62.8655 2.91641 62.7793 2.93344 62.6903C2.97563 62.4703 3.0375 62.2494 3.11781 62.0325C3.14938 61.9475 3.24313 61.9039 3.32891 61.9357C3.41391 61.9671 3.45734 62.0618 3.42578 62.1468C3.35188 62.3463 3.29469 62.5499 3.25609 62.7519C3.24094 62.8305 3.17219 62.8853 3.09484 62.8853ZM3.54578 61.6577C3.51875 61.6577 3.49156 61.651 3.46641 61.6372C3.38703 61.5933 3.35828 61.4932 3.40234 61.4139C3.51063 61.2186 3.63484 61.0272 3.77172 60.8447C3.82594 60.7722 3.92922 60.7572 4.00156 60.8118C4.07422 60.8663 4.08891 60.9693 4.03437 61.0418C3.90672 61.2124 3.79062 61.391 3.68984 61.5732C3.65969 61.6272 3.60344 61.6577 3.54578 61.6577ZM6.80563 61.3238C6.80234 61.3238 6.79906 61.3238 6.79562 61.3235C6.57953 61.3107 6.35141 61.2757 6.11797 61.2196C6.03 61.1985 5.97563 61.1096 5.99672 61.0213C6.01781 60.9335 6.10531 60.8796 6.195 60.9C6.40953 60.9518 6.61828 60.9838 6.81531 60.9957C6.90578 61.0011 6.97484 61.0788 6.96938 61.1693C6.96422 61.2564 6.89188 61.3238 6.80563 61.3238ZM7.45844 61.2791C7.38375 61.2791 7.31609 61.2278 7.29859 61.1518C7.27828 61.0636 7.33344 60.9753 7.42172 60.9549C7.63656 60.9052 7.79719 60.8163 7.88594 60.6977C7.94 60.6249 8.04313 60.6099 8.11578 60.6643C8.18844 60.7185 8.20328 60.8214 8.14906 60.8939C8.01125 61.0786 7.79141 61.2066 7.49563 61.275C7.48313 61.2778 7.47062 61.2791 7.45844 61.2791ZM5.53094 61.0239C5.51063 61.0239 5.48969 61.02 5.46969 61.0121C5.25844 60.9271 5.05281 60.828 4.85828 60.7171C4.77938 60.6722 4.75203 60.5718 4.79688 60.4928C4.84156 60.4139 4.94188 60.3868 5.02094 60.4316C5.20281 60.5352 5.39484 60.6282 5.59234 60.7074C5.67656 60.741 5.71719 60.8369 5.68344 60.921C5.6575 60.985 5.59578 61.0239 5.53094 61.0239ZM4.32969 60.6093C4.28844 60.6093 4.24719 60.5938 4.21516 60.5627C4.15016 60.4996 4.14875 60.3957 4.21187 60.3305C4.22203 60.3202 4.23203 60.31 4.24219 60.2997C4.07953 60.1699 3.92719 60.0291 3.78812 59.8808C3.72609 59.8147 3.72938 59.7108 3.79547 59.6489C3.86203 59.5868 3.96563 59.5899 4.02766 59.6563C4.16609 59.8038 4.31922 59.9433 4.48297 60.0713C4.55891 60.0039 4.63672 59.9388 4.71609 59.8766C4.7875 59.8202 4.89078 59.833 4.94672 59.9043C5.00281 59.9755 4.99047 60.0788 4.91906 60.1346C4.75344 60.2647 4.59469 60.4078 4.44703 60.5596C4.41516 60.5925 4.3725 60.6093 4.32969 60.6093ZM8.10063 60.333C8.02859 60.333 7.9625 60.2852 7.9425 60.2124C7.92063 60.1338 7.88719 60.0491 7.84266 59.961C7.79406 59.8647 7.73609 59.7788 7.67 59.7057C7.60922 59.6383 7.61453 59.5347 7.68188 59.4738C7.74875 59.4135 7.85297 59.4183 7.91375 59.4857C7.99938 59.5807 8.07422 59.6907 8.13578 59.8128C8.19016 59.9207 8.23156 60.0255 8.25906 60.1252C8.28328 60.2124 8.23203 60.3028 8.14453 60.3272C8.13 60.3311 8.11531 60.333 8.10063 60.333ZM5.36109 59.801C5.30437 59.801 5.24922 59.7714 5.21891 59.7189C5.17344 59.6407 5.20031 59.54 5.27875 59.4947C5.485 59.3753 5.69328 59.2769 5.89828 59.2022C5.98359 59.1718 6.0775 59.215 6.10891 59.3C6.14 59.3853 6.09609 59.4796 6.01094 59.5107C5.82391 59.5789 5.63313 59.6691 5.44344 59.7788C5.41719 59.7939 5.38891 59.801 5.36109 59.801ZM3.50203 59.418C3.44859 59.418 3.39625 59.3921 3.36453 59.3439C3.23828 59.1518 3.13016 58.9478 3.04266 58.738C3.00766 58.6543 3.04734 58.5582 3.13109 58.5232C3.21469 58.4894 3.31109 58.5277 3.34578 58.6116C3.42547 58.8027 3.52406 58.9885 3.63906 59.1636C3.68875 59.2393 3.66781 59.3413 3.59188 59.391C3.56422 59.4094 3.53297 59.418 3.50203 59.418ZM7.24219 59.4168C7.22672 59.4168 7.21125 59.4146 7.19563 59.41C7.02328 59.3591 6.82234 59.3436 6.60953 59.3668C6.51766 59.3757 6.43828 59.3116 6.42844 59.2211C6.41859 59.131 6.48375 59.0502 6.57391 59.0402C6.83172 59.0119 7.07484 59.0319 7.28859 59.095C7.37563 59.1207 7.42516 59.2121 7.39953 59.2989C7.37844 59.3705 7.31297 59.4168 7.24219 59.4168ZM3.00047 58.2133C2.92438 58.2133 2.85609 58.16 2.84 58.0829C2.79391 57.8629 2.76719 57.6341 2.76047 57.4028C2.75797 57.3121 2.82922 57.2364 2.91984 57.2338C3.01047 57.2305 3.08609 57.3027 3.08891 57.3932C3.095 57.6052 3.11937 57.8146 3.16141 58.0153C3.18 58.1043 3.12313 58.1911 3.03438 58.2097C3.02297 58.2124 3.01156 58.2133 3.00047 58.2133ZM2.93422 56.9055C2.93109 56.9055 2.92813 56.9055 2.925 56.9052C2.83438 56.9003 2.765 56.8229 2.77016 56.7324C2.78281 56.5024 2.80609 56.2772 2.83922 56.0633C2.85328 55.9741 2.93719 55.9128 3.02672 55.9264C3.11641 55.9405 3.17781 56.0243 3.16391 56.1141C3.13234 56.3171 3.11016 56.5314 3.09797 56.7503C3.09313 56.8378 3.02078 56.9055 2.93422 56.9055ZM3.14016 55.6121C3.12531 55.6121 3.11016 55.6102 3.09531 55.606C3.00813 55.5813 2.95734 55.4905 2.98203 55.4033C3.04578 55.1775 3.12406 54.9624 3.21469 54.7635C3.25234 54.6807 3.35016 54.6449 3.43219 54.6821C3.51484 54.7196 3.55125 54.8171 3.51359 54.8996C3.42984 55.0836 3.35719 55.2832 3.29797 55.4925C3.27766 55.5649 3.21172 55.6121 3.14016 55.6121ZM5.06797 54.5247C5.06188 54.5247 5.05578 54.5244 5.04953 54.5238C4.81813 54.4978 4.59063 54.4443 4.37328 54.3641C4.28813 54.333 4.24469 54.2383 4.27594 54.1533C4.3075 54.0683 4.4025 54.0247 4.48688 54.0561C4.67937 54.1271 4.88094 54.1744 5.08609 54.1972C5.17625 54.2075 5.24109 54.2886 5.23109 54.3788C5.22156 54.4625 5.15047 54.5247 5.06797 54.5247ZM5.72281 54.5141C5.64297 54.5141 5.57297 54.4557 5.56063 54.3746C5.54703 54.2847 5.60859 54.201 5.69828 54.1875C5.91938 54.1539 6.11516 54.0872 6.24969 53.9989C6.32531 53.9496 6.42734 53.971 6.47688 54.0468C6.52656 54.1224 6.50531 54.2244 6.42922 54.2741C6.25375 54.3886 6.01797 54.471 5.7475 54.5121C5.73937 54.5135 5.73109 54.5141 5.72281 54.5141ZM3.68859 54.426C3.65594 54.426 3.62266 54.4163 3.59391 54.3958C3.51984 54.3435 3.50219 54.2408 3.55469 54.1668C3.59625 54.108 3.63953 54.051 3.68406 53.9961C3.52141 53.8779 3.36969 53.7414 3.23234 53.5897C3.17141 53.5224 3.17672 53.4185 3.24391 53.3575C3.31109 53.2972 3.415 53.3021 3.47578 53.3691C3.60609 53.5132 3.75078 53.6418 3.90625 53.7511C3.94187 53.7161 3.97813 53.6822 4.01516 53.6494C4.08266 53.5888 4.18641 53.5952 4.24688 53.6632C4.30703 53.7311 4.30078 53.835 4.23297 53.895C4.08406 54.0272 3.94594 54.1824 3.82297 54.3566C3.79094 54.4019 3.74016 54.426 3.68859 54.426ZM6.49781 53.7553C6.44938 53.7553 6.40156 53.7341 6.36906 53.6935C6.35766 53.6791 6.34438 53.6646 6.32938 53.6502C6.21766 53.5436 6.06844 53.4622 5.89937 53.415C5.81219 53.3907 5.76094 53.3002 5.78531 53.213C5.80969 53.1255 5.90016 53.0741 5.9875 53.0988C6.20797 53.16 6.40469 53.2688 6.55656 53.4132C6.58359 53.4394 6.60641 53.4641 6.62609 53.4888C6.68234 53.56 6.67063 53.6633 6.59969 53.7197C6.56969 53.7438 6.53359 53.7553 6.49781 53.7553ZM4.66719 53.5716C4.60625 53.5716 4.54781 53.5375 4.51953 53.4793C4.47969 53.3978 4.51359 53.2997 4.595 53.2599C4.81375 53.153 5.04109 53.0838 5.27094 53.0533C5.36266 53.0399 5.44328 53.105 5.45516 53.1947C5.46703 53.2846 5.40375 53.3672 5.31391 53.3791C5.11922 53.4047 4.92578 53.4638 4.73906 53.5549C4.71578 53.5661 4.69125 53.5716 4.66719 53.5716ZM2.96969 53.1132C2.91313 53.1132 2.85797 53.0839 2.8275 53.0314C2.71734 52.8416 2.62016 52.6327 2.53906 52.4111C2.50781 52.3261 2.55141 52.2319 2.63656 52.2003C2.72234 52.1696 2.81594 52.2129 2.84734 52.2982C2.92203 52.5018 3.01109 52.693 3.11172 52.8664C3.15734 52.945 3.13047 53.0454 3.05203 53.091C3.02609 53.1061 2.99766 53.1132 2.96969 53.1132ZM2.51172 51.8886C2.43609 51.8886 2.36797 51.836 2.35141 51.7591C2.33828 51.6982 2.32594 51.636 2.31438 51.5727C2.28438 51.4085 2.26047 51.2494 2.24266 51.0958C2.23203 51.0057 2.29672 50.9243 2.38688 50.9136C2.47922 50.9047 2.55828 50.9682 2.56891 51.058C2.58609 51.2046 2.60859 51.3566 2.63734 51.5138C2.64828 51.5738 2.66 51.6321 2.6725 51.6899C2.69156 51.7783 2.63531 51.866 2.54656 51.8849C2.53484 51.8874 2.52328 51.8886 2.51172 51.8886ZM2.36359 50.586C2.27359 50.586 2.20031 50.5135 2.19938 50.4233L2.19922 50.3771C2.19922 50.1599 2.21219 49.9475 2.23766 49.7466C2.24922 49.6564 2.33203 49.5936 2.42125 49.6043C2.51125 49.6158 2.57484 49.6978 2.56344 49.7877C2.53953 49.9757 2.5275 50.1738 2.5275 50.3772L2.52766 50.4202C2.52859 50.5107 2.45578 50.585 2.36516 50.586C2.36469 50.586 2.36406 50.586 2.36359 50.586ZM2.535 49.2899C2.51938 49.2899 2.50359 49.2877 2.48797 49.2832C2.40109 49.2569 2.35172 49.1655 2.37766 49.0785C2.44469 48.8546 2.53156 48.6403 2.63609 48.4422C2.67844 48.3621 2.7775 48.3316 2.85797 48.3736C2.93813 48.416 2.96891 48.5153 2.92656 48.5955C2.83188 48.7747 2.75297 48.9691 2.69219 49.1728C2.67094 49.2439 2.60578 49.2899 2.535 49.2899ZM3.14547 48.1385C3.10844 48.1385 3.07109 48.126 3.04047 48.1004C2.97094 48.0422 2.96141 47.9386 3.01969 47.8691C3.16625 47.6933 3.33297 47.5318 3.51516 47.3886C3.58656 47.3332 3.68953 47.345 3.74563 47.4164C3.80172 47.4877 3.78922 47.591 3.71781 47.6471C3.55375 47.7757 3.40375 47.9213 3.27172 48.0794C3.23938 48.1183 3.19266 48.1385 3.14547 48.1385ZM4.17109 47.3305C4.11094 47.3305 4.05313 47.2975 4.02422 47.24C3.98344 47.1589 4.01625 47.0603 4.09719 47.0197C4.465 46.8347 4.74203 46.7766 4.75359 46.7741C4.84297 46.7552 4.92906 46.8128 4.94734 46.9018C4.96563 46.9905 4.90859 47.0775 4.81984 47.0958C4.8175 47.0964 4.57094 47.1491 4.24484 47.313C4.22109 47.3252 4.19578 47.3305 4.17109 47.3305Z" fill="#241726"/>
<path d="M73.767 47.743C73.7624 47.743 73.7575 47.7427 73.753 47.7424C73.525 47.7229 73.296 47.6732 73.0722 47.5943C72.9867 47.5641 72.9419 47.4702 72.972 47.3849C73.0022 47.2993 73.0955 47.2537 73.1816 47.2845C73.3789 47.354 73.5806 47.398 73.7808 47.4154C73.8713 47.423 73.9381 47.5026 73.9305 47.593C73.9233 47.6787 73.8514 47.743 73.767 47.743ZM74.4205 47.7113C74.3428 47.7113 74.2738 47.6562 74.2591 47.577C74.2425 47.4877 74.3016 47.4021 74.3908 47.3859C74.5875 47.3493 74.7847 47.2865 74.9766 47.1988C75.0594 47.1613 75.1563 47.1976 75.1942 47.2799C75.2317 47.3627 75.1955 47.4598 75.113 47.4977C74.8966 47.5965 74.6738 47.6674 74.4505 47.7085C74.4403 47.7104 74.4303 47.7113 74.4205 47.7113ZM72.5361 47.3188C72.5067 47.3188 72.4769 47.3109 72.45 47.2945C72.2602 47.1771 72.076 47.0382 71.9024 46.8807C71.8352 46.8201 71.83 46.7162 71.891 46.6488C71.9516 46.5815 72.0558 46.5763 72.123 46.6376C72.2816 46.7813 72.4497 46.9084 72.6225 47.0148C72.6997 47.0626 72.7236 47.1637 72.676 47.2409C72.645 47.2912 72.5911 47.3188 72.5361 47.3188ZM75.6102 47.1802C75.5592 47.1802 75.5089 47.1565 75.4769 47.1123C75.4238 47.0385 75.4403 46.9359 75.5139 46.8829C75.6755 46.7662 75.837 46.6285 75.9941 46.4737C76.0591 46.4102 76.1628 46.4109 76.2263 46.4755C76.29 46.5401 76.2892 46.644 76.2247 46.7077C76.0556 46.8741 75.8814 47.0227 75.7061 47.149C75.677 47.1702 75.6435 47.1802 75.6102 47.1802ZM71.5655 46.4432C71.5167 46.4432 71.4686 46.4216 71.4363 46.3804C71.29 46.1943 71.1641 46.0007 71.0617 45.8054C71.0197 45.7249 71.0506 45.6257 71.131 45.5834C71.2114 45.542 71.3105 45.5724 71.3525 45.6526C71.4456 45.8305 71.5606 46.0073 71.6944 46.1776C71.7505 46.2488 71.738 46.3521 71.6667 46.4082C71.6367 46.4316 71.601 46.4432 71.5655 46.4432ZM76.5483 46.2671C76.5122 46.2671 76.4758 46.2552 76.4455 46.2309C76.3749 46.1741 76.3638 46.0705 76.4205 45.9999C76.5028 45.8973 76.5853 45.7885 76.6675 45.6738C76.713 45.6099 76.7556 45.5465 76.7956 45.4837C76.8449 45.4074 76.9463 45.3849 77.0224 45.4334C77.0989 45.4821 77.1213 45.5838 77.0727 45.6601C77.0294 45.728 76.9835 45.796 76.9347 45.8645C76.8488 45.9851 76.7625 46.0988 76.6763 46.206C76.6439 46.2463 76.5964 46.2671 76.5483 46.2671ZM77.2397 45.1555C77.2188 45.1555 77.1972 45.1513 77.1767 45.143C77.093 45.108 77.0533 45.0123 77.088 44.9282C77.1702 44.731 77.2303 44.5309 77.267 44.3335C77.2838 44.2443 77.3685 44.1854 77.4588 44.2023C77.548 44.219 77.6066 44.3046 77.5902 44.3937C77.5491 44.6137 77.4822 44.836 77.3914 45.0545C77.3652 45.1173 77.3041 45.1555 77.2397 45.1555ZM77.4728 43.8745C77.3861 43.8745 77.3136 43.8065 77.3089 43.7188C77.2983 43.5149 77.2636 43.3102 77.2053 43.1104C77.18 43.0235 77.23 42.9324 77.317 42.9068C77.4041 42.8821 77.4952 42.9315 77.5205 43.0187C77.5858 43.2429 77.625 43.4726 77.6369 43.7015C77.6416 43.7923 77.5719 43.8696 77.4814 43.874C77.4786 43.8745 77.4758 43.8745 77.4728 43.8745ZM77.1145 42.6224C77.0558 42.6224 76.9991 42.591 76.9694 42.5355C76.8742 42.357 76.7585 42.1805 76.6253 42.0115C76.5694 41.9399 76.5816 41.8366 76.6528 41.7809C76.7241 41.7245 76.8277 41.7376 76.8835 41.808C77.0286 41.9924 77.155 42.1852 77.2594 42.3809C77.302 42.461 77.2717 42.5605 77.1917 42.6032C77.1669 42.6163 77.1405 42.6224 77.1145 42.6224ZM73.9289 41.8655C73.8397 41.8655 73.7664 41.794 73.7647 41.7046C73.763 41.6141 73.835 41.5391 73.9255 41.5373C74.1088 41.5337 74.3105 41.4982 74.525 41.4318C74.6127 41.4046 74.7036 41.4537 74.7305 41.5402C74.7572 41.6268 74.7088 41.7188 74.6222 41.7455C74.3781 41.8209 74.146 41.8616 73.932 41.8659C73.9311 41.8655 73.93 41.8655 73.9289 41.8655ZM73.3011 41.7112C73.2691 41.7112 73.2366 41.7018 73.2083 41.6823C73.0003 41.5393 72.8858 41.3176 72.8858 41.0585C72.8858 41.0259 72.8875 40.9921 72.8913 40.9577C72.9008 40.8673 72.9802 40.8005 73.072 40.8118C73.1622 40.8215 73.2275 40.9023 73.2178 40.9924C73.2155 41.0152 73.2142 41.0373 73.2142 41.0585C73.2142 41.2105 73.2749 41.3295 73.3944 41.4116C73.4691 41.4629 73.488 41.5652 73.4367 41.6399C73.4047 41.6865 73.3533 41.7112 73.3011 41.7112ZM76.3099 41.5913C76.2695 41.5913 76.2292 41.5766 76.1977 41.5471C76.0597 41.4176 75.9119 41.2954 75.7575 41.183C75.5903 41.2955 75.4216 41.3963 75.2549 41.4826C75.1741 41.5243 75.075 41.4926 75.0336 41.412C74.992 41.3315 75.0235 41.2323 75.1041 41.1907C75.2835 41.098 75.4658 40.9871 75.6463 40.861C75.6966 40.8257 75.7605 40.8232 75.8125 40.8482C75.8414 40.8504 75.8703 40.8601 75.8956 40.878C76.081 41.0088 76.2581 41.1535 76.4222 41.3071C76.4885 41.3693 76.4917 41.4732 76.4297 41.5393C76.3972 41.574 76.3536 41.5913 76.3099 41.5913ZM75.2395 40.8351C75.2142 40.8351 75.1885 40.8293 75.1642 40.8168C74.97 40.716 74.7749 40.634 74.5842 40.5727C74.4978 40.5451 74.4503 40.4527 74.4781 40.3662C74.5061 40.2799 74.5989 40.2324 74.6847 40.2604C74.8927 40.3271 75.1049 40.4163 75.3153 40.5249C75.3958 40.5666 75.4272 40.6657 75.3855 40.7462C75.3563 40.8026 75.2991 40.8351 75.2395 40.8351ZM76.2564 40.7545C76.2106 40.7545 76.1652 40.7355 76.1328 40.6984C76.0731 40.6301 76.08 40.5262 76.1485 40.4665C76.3056 40.3291 76.4614 40.1801 76.6119 40.0226C76.6744 39.9571 76.7788 39.9549 76.8439 40.0174C76.9095 40.0799 76.9119 40.1838 76.8492 40.2496C76.6922 40.4138 76.5292 40.5701 76.3645 40.714C76.3331 40.741 76.2947 40.7545 76.2564 40.7545ZM73.3581 40.5826C73.3039 40.5826 73.2508 40.5557 73.2195 40.5065C73.1708 40.4302 73.1933 40.3285 73.2695 40.2798C73.4339 40.1752 73.6449 40.122 73.8964 40.122C73.9256 40.1195 73.9644 40.1229 73.9997 40.1248C74.0903 40.1293 74.1599 40.2065 74.1555 40.297C74.1508 40.3877 74.0733 40.4612 73.9831 40.4526C73.9538 40.451 73.9216 40.448 73.8969 40.4504C73.7111 40.4504 73.5555 40.4873 73.4464 40.5568C73.4189 40.5743 73.3883 40.5826 73.3581 40.5826ZM77.1641 39.8074C77.1277 39.8074 77.0911 39.7952 77.0606 39.7705C76.9902 39.7135 76.9797 39.6099 77.0369 39.5396C77.1691 39.377 77.3 39.2038 77.4263 39.0249C77.4785 38.9509 77.5814 38.9329 77.6552 38.9851C77.7292 39.0374 77.747 39.1399 77.6949 39.214C77.5644 39.399 77.4288 39.5784 77.2917 39.7468C77.2591 39.787 77.2119 39.8074 77.1641 39.8074ZM77.921 38.7352C77.8916 38.7352 77.8619 38.7276 77.8352 38.7109C77.7578 38.6634 77.7336 38.5624 77.7813 38.4851C77.861 38.3552 77.94 38.2209 78.018 38.0816C78.0469 38.0298 78.0744 37.9784 78.1005 37.9268C78.1417 37.846 78.2406 37.8141 78.3211 37.8543C78.402 37.8954 78.4345 37.9941 78.3936 38.0749C78.3653 38.1304 78.3358 38.1862 78.3045 38.242C78.2242 38.3849 78.1431 38.5232 78.0611 38.657C78.03 38.7073 77.9761 38.7352 77.921 38.7352ZM78.4942 37.5576C78.4783 37.5576 78.462 37.5554 78.446 37.5502C78.3592 37.5237 78.3106 37.432 78.3372 37.3449C78.3999 37.1416 78.4417 36.9363 78.4617 36.7349C78.4705 36.6445 78.548 36.581 78.6413 36.5874C78.7314 36.5963 78.7975 36.677 78.7885 36.767C78.7663 36.9905 78.7202 37.2173 78.6511 37.4418C78.6294 37.5123 78.5645 37.5576 78.4942 37.5576ZM78.6181 36.2599C78.5361 36.2599 78.4652 36.1987 78.4552 36.1149C78.4311 35.9132 78.3844 35.7096 78.3164 35.5107C78.287 35.4248 78.333 35.3315 78.4188 35.302C78.5042 35.2734 78.5981 35.3187 78.6272 35.4043C78.7027 35.6252 78.7545 35.8513 78.7813 36.0765C78.792 36.1663 78.7277 36.248 78.6377 36.2587C78.6313 36.2596 78.6245 36.2599 78.6181 36.2599ZM78.202 35.0248C78.1449 35.0248 78.0894 34.9949 78.0591 34.9413C77.9586 34.7643 77.8395 34.5888 77.7047 34.4198C77.6481 34.3488 77.6597 34.2455 77.7305 34.1891C77.8016 34.133 77.9049 34.144 77.9613 34.2151C78.1069 34.3976 78.236 34.5874 78.3449 34.7796C78.3895 34.8585 78.3619 34.9585 78.283 35.0032C78.2572 35.018 78.2295 35.0248 78.202 35.0248ZM77.3888 33.9971C77.3478 33.9971 77.307 33.982 77.275 33.9515C77.125 33.8079 76.9617 33.669 76.7892 33.5387C76.7169 33.4838 76.7025 33.3809 76.7572 33.3084C76.8117 33.2359 76.9147 33.2221 76.9872 33.2763C77.1699 33.4143 77.3431 33.5618 77.5025 33.7141C77.568 33.777 77.5702 33.8809 77.5074 33.9463C77.475 33.9802 77.4319 33.9971 77.3888 33.9971ZM73.4713 33.7765C73.1514 33.7765 72.9497 33.561 72.9317 33.2001C72.9272 33.1096 72.997 33.0327 73.0877 33.0282C73.1744 33.0135 73.2553 33.0934 73.2599 33.1841C73.273 33.448 73.4069 33.448 73.4713 33.448C73.5605 33.448 73.6439 33.5193 73.6461 33.6084C73.648 33.6976 73.5891 33.772 73.4999 33.7759C73.4974 33.7762 73.4738 33.7765 73.4713 33.7765ZM74.097 33.5391C74.0435 33.5391 73.9911 33.5132 73.9595 33.4651C73.9099 33.3891 73.9308 33.2874 74.0067 33.2377C74.1644 33.1341 74.3258 33.0007 74.4864 32.8404C74.5508 32.777 74.6547 32.7766 74.7186 32.8407C74.7825 32.9052 74.7825 33.0091 74.7183 33.0732C74.542 33.249 74.3633 33.3968 74.187 33.5123C74.1594 33.5305 74.1281 33.5391 74.097 33.5391ZM76.3436 33.2054C76.3149 33.2054 76.2858 33.198 76.2594 33.182C76.0753 33.072 75.885 32.9713 75.6941 32.8834C75.6117 32.8455 75.5758 32.748 75.6138 32.6655C75.6516 32.5827 75.7483 32.5465 75.8317 32.5851C76.0333 32.678 76.2339 32.784 76.4281 32.9004C76.506 32.947 76.5313 33.0476 76.4847 33.1255C76.4539 33.1768 76.3994 33.2054 76.3436 33.2054ZM73.2708 32.7405C73.2313 32.7405 73.1919 32.7265 73.1605 32.6979C73.0933 32.637 73.0883 32.533 73.1492 32.466C73.3045 32.2948 73.5366 32.1896 73.8389 32.1534C73.9311 32.1421 74.0108 32.2066 74.0217 32.2968C74.0325 32.3866 73.9683 32.4684 73.8783 32.4793C73.6595 32.5059 73.4916 32.5774 73.3922 32.6868C73.3599 32.7223 73.3153 32.7405 73.2708 32.7405ZM75.1513 32.6579C75.1344 32.6579 75.1175 32.6554 75.1006 32.6499C75.0736 32.6413 75.0466 32.6326 75.0197 32.6246C74.9969 32.6227 74.9741 32.6163 74.9533 32.6048C74.7927 32.5585 74.6366 32.5237 74.488 32.5005C74.3985 32.4865 74.337 32.4027 74.3511 32.3129C74.365 32.2237 74.4483 32.1635 74.5388 32.176C74.6777 32.1979 74.8217 32.2287 74.9697 32.2684C75.0699 32.1285 75.1645 31.9816 75.2519 31.8302C75.2972 31.7516 75.3978 31.7245 75.4763 31.7702C75.5549 31.8155 75.5817 31.9159 75.5364 31.9945C75.457 32.1318 75.372 32.2659 75.2825 32.3948C75.3136 32.4362 75.3249 32.4916 75.3077 32.5446C75.285 32.6135 75.2206 32.6579 75.1513 32.6579ZM75.6885 31.4891C75.6667 31.4891 75.6447 31.4849 75.6233 31.4757C75.54 31.4398 75.5019 31.3429 75.5378 31.2599C75.6219 31.0655 75.6955 30.8641 75.7569 30.6612C75.783 30.5746 75.8749 30.5255 75.9616 30.5515C76.0483 30.5777 76.0975 30.6691 76.0713 30.7562C76.0063 30.9713 75.9283 31.1846 75.8394 31.3902C75.8125 31.4523 75.7519 31.4891 75.6885 31.4891ZM76.0677 30.2348C76.058 30.2348 76.0483 30.2338 76.0383 30.2323C75.9491 30.2162 75.8899 30.1305 75.9058 30.0415C75.9435 29.833 75.9694 29.6201 75.9827 29.4087C75.9883 29.3182 76.067 29.2451 76.157 29.2551C76.2475 29.2609 76.3163 29.3388 76.3105 29.4293C76.2964 29.6535 76.2689 29.879 76.2292 30.0999C76.2147 30.179 76.1456 30.2348 76.0677 30.2348ZM76.1411 28.9276C76.0574 28.9276 75.986 28.8641 75.9778 28.7791C75.9575 28.5668 75.9167 28.3626 75.8563 28.172C75.8288 28.0854 75.8766 27.993 75.9631 27.9657C76.05 27.9391 76.142 27.9862 76.1694 28.0726C76.2367 28.2852 76.2825 28.5123 76.3047 28.7477C76.3133 28.8382 76.2472 28.9184 76.1569 28.927C76.1516 28.9271 76.1463 28.9276 76.1411 28.9276ZM75.7435 27.6909C75.688 27.6909 75.6338 27.6626 75.6028 27.612C75.498 27.4388 75.3705 27.2755 75.2236 27.126C75.1602 27.0612 75.1611 26.9573 75.2256 26.8938C75.2905 26.8301 75.3939 26.831 75.458 26.8957C75.6224 27.0632 75.7658 27.247 75.8838 27.4413C75.9308 27.519 75.9061 27.6199 75.8285 27.6671C75.8017 27.683 75.7724 27.6909 75.7435 27.6909ZM74.8361 26.7562C74.8044 26.7562 74.7722 26.7468 74.7438 26.7276C74.5778 26.6146 74.3933 26.5098 74.1952 26.4165C74.1133 26.378 74.0781 26.2799 74.1167 26.198C74.1552 26.1155 74.2536 26.081 74.3353 26.1195C74.5489 26.2202 74.7486 26.3334 74.9288 26.4562C75.0036 26.5071 75.0231 26.6095 74.9719 26.6843C74.9402 26.7312 74.8885 26.7562 74.8361 26.7562ZM73.6539 26.1907C73.6369 26.1907 73.6197 26.188 73.6028 26.1827C73.4055 26.1179 73.1972 26.0615 72.9841 26.0146C72.8955 25.9954 72.8394 25.9077 72.8588 25.8193C72.878 25.7304 72.965 25.6743 73.0542 25.6938C73.2781 25.7429 73.4972 25.8023 73.705 25.8702C73.7911 25.8988 73.8381 25.9915 73.8099 26.0777C73.7874 26.1468 73.723 26.1907 73.6539 26.1907ZM72.3705 25.906C72.3636 25.906 72.3566 25.9057 72.3494 25.9048C71.9689 25.856 71.7131 25.8538 71.7105 25.8538C71.6199 25.8532 71.5469 25.7791 71.5474 25.6887C71.548 25.5982 71.6213 25.5254 71.7116 25.5254C71.723 25.5276 71.9775 25.5263 72.391 25.579C72.481 25.5905 72.5444 25.6726 72.533 25.7627C72.5227 25.8454 72.4519 25.906 72.3705 25.906Z" fill="#241726"/>
<path d="M65.1163 35.8179C65.1163 35.8179 61.6168 29.9382 62.9955 30.2622C64.3744 30.5863 65.4761 34.2955 65.4761 34.2955C65.4761 34.2955 65.6727 26.8696 66.5999 27.9861C67.5272 29.1027 66.5999 32.9046 66.5999 32.9046C66.5999 32.9046 66.5914 26.7769 67.7547 27.9861C68.918 29.1954 67.7547 33.3683 67.7547 33.3683C67.7547 33.3683 68.918 28.2207 69.4744 29.2182C70.0308 30.2155 68.6399 34.3885 68.6399 34.3885C68.6399 34.3885 70.5872 31.1315 70.9582 31.8791C71.3291 32.6266 67.7547 37.0777 67.7547 37.0777V40.2305L64.7452 39.703L65.1163 35.8179Z" fill="#E38B72"/>
<path d="M66.8303 36.252C66.8158 36.252 66.8009 36.2502 66.7862 36.2459C66.6991 36.2219 66.6478 36.1314 66.6719 36.0439C66.7522 35.7533 66.8842 34.9211 66.5337 34.5663C66.3366 34.3664 65.995 34.3286 65.5186 34.4541C65.4312 34.4784 65.3412 34.4248 65.318 34.337C65.2948 34.2495 65.3473 34.1597 65.4348 34.1366C66.0331 33.9791 66.4817 34.0464 66.768 34.3361C67.323 34.8989 67.002 36.0819 66.9883 36.1319C66.9683 36.2047 66.9022 36.252 66.8303 36.252Z" fill="#241726"/>
<path d="M66.6 33.0689C66.5128 33.0689 66.4402 33.0003 66.4361 32.912C66.405 32.2298 66.5457 30.3305 66.5518 30.25C66.5583 30.1595 66.6382 30.0903 66.7277 30.0983C66.8182 30.105 66.886 30.1839 66.8792 30.2744C66.8778 30.2939 66.7341 32.2347 66.7642 32.8972C66.7685 32.9877 66.6982 33.0647 66.6077 33.0684C66.6052 33.0689 66.6027 33.0689 66.6 33.0689Z" fill="#241726"/>
<path d="M67.7543 33.5318C67.745 33.5318 67.7357 33.5312 67.7263 33.5296C67.6368 33.5143 67.5769 33.4292 67.5922 33.3398L68.0902 30.4392C68.1055 30.35 68.1905 30.2898 68.2797 30.3051C68.3693 30.3204 68.4291 30.4054 68.4138 30.495L67.9158 33.3956C67.9022 33.4754 67.8329 33.5318 67.7543 33.5318Z" fill="#241726"/>
<path d="M63.8077 36.667C63.8077 36.667 63.9455 46.6573 63.242 46.9356C62.5386 47.2139 55.7863 42.9996 55.7863 42.9996L40.0197 44.1834L24.2267 45.5006C24.2267 45.5006 9.36329 52.2906 9.22266 54.5415C9.08204 56.7923 16.5553 60.9182 16.5553 60.9182L20.037 57.2782L13.3005 54.8164L22.2581 51.6048C20.4627 58.1243 19.8127 63.6086 19.8127 63.6086L32.5564 63.3945L35.9316 72.5417L39.8847 72.2032L40.6374 63.2587L41.9231 63.2371L42.6777 72.2032L46.6308 72.5417L50.1148 63.0995L63.7766 62.87C63.7766 62.87 61.8194 55.6217 58.0863 47.9601C60.8859 48.7982 64.4717 49.8732 65.0427 50.0528C65.9995 50.3536 68.6084 38.1593 68.6084 38.1593L63.8077 36.667Z" fill="#DF4F3E"/>
<path d="M38.1097 41.3944L39.2992 62.1311L18.8164 62.1863L19.2384 66.3514L65.0428 64.9798L64.5902 60.7856L41.7945 61.7094C41.7945 61.7094 41.0927 40.6078 40.4597 40.7133C39.8269 40.8188 38.1097 41.3944 38.1097 41.3944Z" fill="white"/>
<path d="M19.2387 66.5156C19.1546 66.5156 19.0837 66.4522 19.0752 66.3681L18.6532 62.2028C18.6485 62.1566 18.6637 62.1108 18.6946 62.0761C18.7257 62.0417 18.7697 62.0219 18.8162 62.0219L39.1257 61.967L37.9458 41.4034C37.9415 41.3297 37.9874 41.262 38.0576 41.2386C38.1282 41.2148 39.7943 40.6578 40.433 40.5513C40.4787 40.5439 40.5557 40.5653 40.5924 40.5955C41.2191 41.1086 41.7858 56.5328 41.9533 61.5384L64.5838 60.6213C64.6666 60.62 64.7444 60.6819 64.7537 60.7678L65.2062 64.9619C65.2112 65.0075 65.1968 65.053 65.1666 65.0873C65.1366 65.122 65.0935 65.1422 65.0479 65.1438L19.2437 66.5156C19.2419 66.5156 19.2402 66.5156 19.2387 66.5156ZM18.9983 62.3497L19.3868 66.1827L64.8607 64.8209L64.4438 60.9559L41.8015 61.8736C41.7599 61.8739 41.7154 61.8595 41.6832 61.8297C41.6512 61.7998 41.6324 61.7584 41.6308 61.7148C41.3687 53.835 40.8301 41.9727 40.3994 40.8919C39.8365 41.0048 38.6583 41.3864 38.2808 41.5109L39.4633 62.1219C39.4658 62.1667 39.4499 62.2111 39.419 62.2438C39.3882 62.2764 39.3451 62.2955 39.2999 62.2955L18.9983 62.3497Z" fill="#241726"/>
<path d="M24.0639 16.7635C24.0639 16.7635 35.6545 9.4946 41.0003 13.7149C46.3459 17.9352 58.4817 27.9882 38.3425 34.559C18.2033 41.1298 19.1403 19.999 24.0639 16.7635Z" fill="#E38B72"/>
<path d="M24.5009 18.7871C24.5009 18.7871 18.0159 29.5598 27.7226 33.9207C37.4294 38.2817 29.3404 24.9929 36.5148 24.9226C43.6892 24.8523 43.1675 33.9595 46.2917 28.5098C50.7229 20.7803 38.5037 14.8459 40.3325 14.5645C42.1612 14.2831 43.4236 13.794 43.9706 14.8642C45.5884 18.0293 64.5092 20.7725 62.399 31.3232C60.2889 41.8739 53.8178 49.4704 35.2487 50.0331C16.6795 50.5961 11.6856 38.7793 16.4686 29.9167C21.2515 21.0542 18.74 19.5025 20.2875 19.3618C21.8348 19.2212 24.5009 18.7871 24.5009 18.7871Z" fill="#F4F1E3"/>
<path d="M37.2524 27.201C36.701 27.201 35.1988 26.0377 34.5512 25.5143C34.4807 25.4576 34.4698 25.354 34.5266 25.2833C34.5838 25.2132 34.6868 25.2016 34.7577 25.259C35.691 26.013 36.8243 26.8 37.1745 26.8722C37.147 26.354 36.1287 23.9216 35.0998 21.738C35.0612 21.656 35.0963 21.5582 35.1782 21.5196C35.2606 21.4811 35.3584 21.5157 35.3968 21.5982C36.0926 23.0744 37.6877 26.5621 37.4745 27.061C37.4479 27.1229 37.4002 27.1682 37.3401 27.1883C37.3143 27.1968 37.2851 27.201 37.2524 27.201Z" fill="#241726"/>
<path d="M38.0379 32.1263C37.9372 32.1263 37.8192 32.0981 37.6851 32.0212C36.1353 31.1334 34.5733 28.0329 34.5076 27.9015C34.467 27.8204 34.5 27.7215 34.5811 27.6812C34.662 27.6404 34.7609 27.6738 34.8014 27.7546C34.817 27.786 36.3845 30.8978 37.8484 31.7363C38.0109 31.829 38.0956 31.7973 38.1453 31.7653C38.749 31.374 38.6836 28.322 38.5004 26.4903C38.4914 26.4001 38.5572 26.3196 38.6475 26.3106C38.7394 26.3006 38.8183 26.3673 38.8273 26.4574C38.8778 26.9629 39.2929 31.4126 38.3239 32.0406C38.2536 32.0863 38.1578 32.1263 38.0379 32.1263Z" fill="#241726"/>
<path d="M29.0987 26.6384C27.1596 26.6384 26.1962 22.875 26.1554 22.7118C26.1332 22.624 26.1868 22.5348 26.2748 22.5126C26.3631 22.4911 26.452 22.544 26.474 22.6323C26.4837 22.6701 27.4538 26.4403 29.1865 26.3065C29.479 26.285 29.6862 26.1703 29.8196 25.9556C30.3885 25.0415 29.4776 22.7564 29.4682 22.7336C29.4343 22.6492 29.4749 22.5536 29.5592 22.5196C29.6424 22.4864 29.7388 22.5264 29.7727 22.6104C29.8134 22.7104 30.7551 25.0736 30.0985 26.1287C29.9084 26.4343 29.6096 26.6043 29.2107 26.6342C29.1731 26.6368 29.1357 26.6384 29.0987 26.6384Z" fill="#241726"/>
<path d="M40.5915 23.6999C40.5292 23.6999 40.461 23.6929 40.3864 23.6771C38.6439 23.3054 38.1973 20.0876 38.1792 19.9507C38.1673 19.8609 38.2304 19.7785 38.3203 19.7667C38.41 19.7499 38.4926 19.8176 38.5046 19.9077C38.5089 19.9388 38.9381 23.0323 40.4548 23.3559C40.6845 23.4046 40.782 23.3312 40.834 23.2712C41.2707 22.7712 40.7351 20.6423 40.295 19.4177C40.2643 19.3324 40.3085 19.2385 40.394 19.2077C40.4785 19.1776 40.5731 19.2215 40.604 19.3068C40.7271 19.6493 41.7876 22.6785 41.0814 23.4871C40.991 23.5909 40.8375 23.6999 40.5915 23.6999Z" fill="#241726"/>
<path d="M27.9674 30.3194C28.6837 29.8899 28.9162 28.9611 28.4868 28.2448C28.0574 27.5285 27.1286 27.2959 26.4122 27.7254C25.6959 28.1548 25.4634 29.0836 25.8928 29.7999C26.3222 30.5162 27.2511 30.7488 27.9674 30.3194Z" fill="#DF4F3E"/>
<path d="M43.6528 25.0434C44.488 25.0434 45.165 24.3664 45.165 23.5312C45.165 22.6961 44.488 22.019 43.6528 22.019C42.8177 22.019 42.1406 22.6961 42.1406 23.5312C42.1406 24.3664 42.8177 25.0434 43.6528 25.0434Z" fill="#DF4F3E"/>
<path d="M38.0565 12.2904C38.0565 12.2904 34.3885 6.35352 28.2418 3.25868C22.0949 0.163838 13.0918 10.7848 13.0918 10.7848L21.1807 8.53399C21.1807 8.53399 19.654 16.0145 20.287 16.8362C20.9198 17.6579 38.0565 12.2904 38.0565 12.2904Z" fill="#DF4F3E"/>
<path d="M12.3197 13.0373C13.5124 13.0373 14.4792 12.0705 14.4792 10.8778C14.4792 9.68512 13.5124 8.71826 12.3197 8.71826C11.127 8.71826 10.1602 9.68512 10.1602 10.8778C10.1602 12.0705 11.127 13.0373 12.3197 13.0373Z" fill="white"/>
<path d="M12.3198 13.2017C11.0386 13.2017 9.99609 12.1594 9.99609 10.8781C9.99609 9.59686 11.0386 8.5542 12.3198 8.5542C13.6011 8.5542 14.6436 9.59686 14.6436 10.8781C14.6436 12.1594 13.6011 13.2017 12.3198 13.2017ZM12.3198 8.88248C11.2195 8.88248 10.3244 9.77764 10.3244 10.8779C10.3244 11.9779 11.2195 12.8731 12.3198 12.8731C13.42 12.8731 14.3152 11.9779 14.3152 10.8779C14.3152 9.77764 13.42 8.88248 12.3198 8.88248Z" fill="#241726"/>
<path d="M19.2385 16.3944C19.2385 16.3944 39.7303 8.61878 41.4135 10.3803C43.0966 12.1419 43.9696 14.8644 43.9696 14.8644C43.9696 14.8644 20.125 22.7047 19.6327 21.6685C19.1402 20.6322 19.2385 16.3944 19.2385 16.3944Z" fill="white"/>
<path d="M19.97 21.9258C19.5738 21.9258 19.5242 21.8216 19.4849 21.7388C18.9816 20.6794 19.071 16.5652 19.075 16.3903C19.0766 16.3236 19.1185 16.2642 19.181 16.2405C21.2886 15.441 39.8241 8.47893 41.5327 10.2664C43.2224 12.0352 44.0903 14.7011 44.1264 14.8139C44.1541 14.8999 44.107 14.9919 44.0214 15.0199C43.9617 15.0397 37.9897 17.0016 32.0341 18.8117C23.5706 21.3846 20.872 21.9258 19.97 21.9258ZM19.7724 21.5778C20.7161 22.0441 34.8922 17.673 43.7608 14.7602C43.5488 14.1633 42.7053 11.9692 41.2956 10.4936C40.12 9.26299 27.6 13.4028 19.4016 16.5085C19.3906 17.1744 19.3552 20.6485 19.7724 21.5778Z" fill="#241726"/>
<path d="M20.8039 27.5867C21.6732 26.7174 21.6732 25.308 20.8039 24.4387C19.9346 23.5695 18.5253 23.5695 17.656 24.4387C16.7867 25.308 16.7867 26.7174 17.656 27.5867C18.5253 28.4559 19.9346 28.4559 20.8039 27.5867Z" fill="#E38B72"/>
<path d="M48.017 20.032C49.2463 20.032 50.2429 19.0354 50.2429 17.806C50.2429 16.5767 49.2463 15.5801 48.017 15.5801C46.7876 15.5801 45.791 16.5767 45.791 17.806C45.791 19.0354 46.7876 20.032 48.017 20.032Z" fill="#E38B72"/>
<path d="M19.8875 26.8947C19.8078 26.8947 19.7378 26.8367 19.7253 26.7555C19.5525 25.6394 19.2406 25.3202 19.0096 25.2488C18.649 25.1381 18.2534 25.5538 18.2492 25.5577C18.1876 25.6241 18.0839 25.6278 18.0171 25.5656C17.9509 25.5038 17.947 25.4005 18.0089 25.3341C18.0306 25.3106 18.5473 24.7635 19.105 24.9344C19.5721 25.0775 19.89 25.6733 20.0498 26.7055C20.0635 26.795 20.0023 26.8789 19.9128 26.8928C19.9042 26.8941 19.8957 26.8947 19.8875 26.8947Z" fill="#241726"/>
<path d="M47.6914 19.3025C47.6201 19.3025 47.5547 19.2559 47.5337 19.1842C47.23 18.1437 47.2567 17.375 47.6128 16.9003C47.9475 16.4539 48.444 16.4487 48.4651 16.4487C48.5559 16.4487 48.6293 16.5222 48.6293 16.6129C48.6293 16.7034 48.5564 16.7765 48.4662 16.7772C48.4517 16.7775 48.1058 16.7858 47.872 17.102C47.5889 17.485 47.5809 18.1733 47.849 19.0925C47.8743 19.1794 47.8245 19.2704 47.7375 19.2958C47.722 19.3003 47.7065 19.3025 47.6914 19.3025Z" fill="#241726"/>
<path d="M18.7188 5.60031C18.7188 5.60031 20.8289 8.39359 23.6423 7.33843C26.4559 6.28343 25.4008 3.32921 27.2295 6.14265C29.0583 8.95609 33.6022 7.05187 33.5372 6.99359C33.4722 6.93531 29.9023 2.90703 26.878 1.99265C23.8534 1.07843 18.7188 5.60031 18.7188 5.60031Z" fill="#F4F1E3"/>
<path d="M18.8159 58.2275C18.8159 58.2275 21.8479 59.7794 20.8354 62.6021C19.8229 65.4246 14.2598 67.1127 15.3942 65.4549C16.08 64.4525 19.1925 63.503 19.1925 63.503C19.1925 63.503 15.1164 64.8433 14.342 63.9779C13.9171 63.503 18.2214 62.8127 18.3868 62.8102C18.5523 62.8079 15.9218 63.1386 15.2889 62.1866C14.6559 61.2346 18.334 62.9755 18.816 61.1291C19.2981 59.2827 17.9793 59.3882 17.9793 59.3882L18.8159 58.2275Z" fill="#E38B72"/>
<path d="M21.2009 55.8603C21.2009 55.8603 60.3548 52.9984 60.4252 53.2094C60.4955 53.4203 61.468 55.8809 61.468 55.8809L20.7773 57.8586L21.2009 55.8603Z" fill="#241726"/>
<path d="M36.3516 53.5327L43.6884 52.9072V58.2279L37.0975 58.8913L36.3516 53.5327Z" fill="#E1AF01"/>
<path d="M38.1855 54.6974L41.854 54.3848V57.0451L38.5585 57.3768L38.1855 54.6974Z" fill="#241726"/>
<path d="M21.1797 8.69823C21.1078 8.69823 21.0419 8.65073 21.0217 8.57792C20.9973 8.49073 21.0484 8.40026 21.1358 8.37589C22.0867 8.11089 24.1483 8.22026 24.2356 8.22542C24.3262 8.23026 24.3955 8.30792 24.3905 8.39823C24.3856 8.4887 24.3087 8.5612 24.2176 8.55308C24.1969 8.55245 22.1226 8.44214 21.224 8.69198C21.2092 8.6962 21.1942 8.69823 21.1797 8.69823Z" fill="#241726"/>
<path d="M36.1172 14.5396C36.0944 14.5396 36.0713 14.5348 36.0494 14.5249C35.9667 14.4874 35.9303 14.3899 35.968 14.3074C36.1475 13.9132 36.3794 13.6935 36.6572 13.6538C37.0658 13.5974 37.3892 13.9649 37.4028 13.981C37.4619 14.0496 37.4541 14.1526 37.3858 14.212C37.3175 14.2713 37.2139 14.2635 37.1542 14.1955C37.0933 14.126 36.8931 13.9521 36.7024 13.9791C36.5039 14.0084 36.3559 14.2479 36.2669 14.4435C36.2392 14.5041 36.1795 14.5396 36.1172 14.5396Z" fill="#241726"/>
<path d="M37.8613 15.5229C37.8385 15.5229 37.8153 15.5181 37.7935 15.5081C37.7108 15.4706 37.6746 15.3731 37.7121 15.2906C37.8914 14.8963 38.1233 14.6767 38.4013 14.637C38.8099 14.5793 39.1333 14.9481 39.1469 14.9642C39.206 15.0328 39.1981 15.1357 39.1299 15.1951C39.0616 15.2545 38.9581 15.2467 38.8983 15.1787C38.8374 15.1092 38.6356 14.9365 38.4464 14.9623C38.2478 14.9915 38.1 15.231 38.011 15.4267C37.9833 15.4873 37.9238 15.5229 37.8613 15.5229Z" fill="#241726"/>
<path d="M34.0683 15.0104C34.0455 15.0104 34.0223 15.0055 34.0005 14.9957C33.918 14.9582 33.8816 14.8607 33.9191 14.7782C34.0984 14.384 34.3305 14.164 34.6083 14.1243C35.0189 14.0666 35.3403 14.4354 35.3539 14.4515C35.413 14.5201 35.4052 14.623 35.3369 14.6824C35.2684 14.7418 35.165 14.7344 35.1053 14.666C35.0444 14.5965 34.8473 14.4177 34.6534 14.4499C34.455 14.4788 34.307 14.7183 34.2178 14.9143C34.1903 14.9747 34.1306 15.0104 34.0683 15.0104Z" fill="#241726"/>
<path d="M35.7968 15.9012C35.774 15.9012 35.751 15.8964 35.729 15.8865C35.6463 15.849 35.6101 15.7515 35.6476 15.669C35.827 15.2748 36.0588 15.0548 36.3368 15.0151C36.7465 14.9564 37.069 15.3262 37.0824 15.3423C37.1415 15.4109 37.1337 15.5139 37.0654 15.5732C36.997 15.6326 36.8935 15.6253 36.8338 15.5568C36.7729 15.4873 36.5757 15.3079 36.382 15.3407C36.1835 15.3696 36.0356 15.6092 35.9465 15.8051C35.9188 15.8656 35.8593 15.9012 35.7968 15.9012Z" fill="#241726"/>
<path d="M33.6797 16.5872C33.6569 16.5872 33.6338 16.5824 33.6119 16.5725C33.5292 16.535 33.4928 16.4376 33.5305 16.3551C33.7099 15.9608 33.9419 15.7408 34.2197 15.7011C34.63 15.6424 34.9517 16.0122 34.9653 16.0283C35.0244 16.0969 35.0166 16.1999 34.9483 16.2593C34.8799 16.3186 34.7764 16.3111 34.7167 16.2429C34.6558 16.1733 34.457 15.9949 34.2649 16.0268C34.0664 16.0557 33.9184 16.2952 33.8292 16.4911C33.8017 16.5518 33.742 16.5872 33.6797 16.5872Z" fill="#241726"/>
<path d="M63.539 36.0879L63.3535 37.819L69.041 39.6426L69.752 37.6643L63.539 36.0879Z" fill="white"/>
<path d="M69.041 39.8071C69.0243 39.8071 69.0074 39.8046 68.9909 39.7994L63.3035 37.9755C63.2295 37.9514 63.1821 37.8789 63.1904 37.8013L63.3757 36.0704C63.3807 36.0232 63.4062 35.9802 63.4451 35.9533C63.4841 35.9261 63.5332 35.9171 63.5793 35.9289L69.7923 37.5057C69.8371 37.5169 69.8752 37.5468 69.8968 37.5877C69.9187 37.6285 69.922 37.6766 69.9065 37.7202L69.1955 39.6985C69.1715 39.765 69.1085 39.8071 69.041 39.8071ZM63.5312 37.7035L68.9402 39.438L69.5363 37.7796L63.6821 36.2936L63.5312 37.7035Z" fill="#241726"/>
<path d="M19.0083 55.8989L15.1641 60.6188L16.7042 61.7095L21.0361 56.6055L19.0083 55.8989Z" fill="white"/>
<path d="M16.7045 61.8736C16.6716 61.8736 16.6384 61.8636 16.6096 61.8434L15.0693 60.7527C15.0323 60.7264 15.0077 60.6859 15.0015 60.6408C14.9954 60.5959 15.0082 60.5503 15.037 60.515L18.8813 55.7952C18.9249 55.7413 18.9974 55.7205 19.0627 55.7439L21.0905 56.4505C21.1416 56.4681 21.1807 56.5102 21.1949 56.562C21.2091 56.6144 21.1966 56.6705 21.1618 56.7116L16.8299 61.8155C16.7976 61.8538 16.7513 61.8736 16.7045 61.8736ZM15.4027 60.5863L16.6768 61.4884L20.7565 56.6817L19.0635 56.0919L15.4027 60.5863Z" fill="#241726"/>
<path d="M34.9683 48.895C34.735 48.895 34.4895 48.8748 34.2315 48.8304C32.7739 48.5803 31.7887 47.9815 31.1723 47.3095C31.1648 47.3187 31.1573 47.3281 31.1495 47.337C30.6453 47.9406 29.4901 48.857 27.4175 48.2068C25.5628 47.6254 24.7155 46.607 24.395 45.6596C24.0025 46.1353 23.5186 46.5484 22.9947 46.7418C22.4008 46.9612 21.5097 46.9871 20.6455 45.8628C19.7451 44.6915 19.5808 43.7214 19.6522 43.0301C19.4278 43.0609 19.1967 43.0718 18.9645 43.0584C17.9672 42.9996 17.217 42.4898 16.8523 41.6224C16.264 40.2235 16.7567 38.8739 17.4372 38.0351C16.9705 37.7435 16.4253 37.1787 16.2992 36.107C16.1395 34.75 16.879 33.5851 17.7256 32.8443C17.3314 32.5582 17.0242 32.1426 16.8486 31.6368C16.6261 30.9964 16.6478 30.4431 16.913 29.9918C17.3553 29.2387 18.3098 29.0631 18.3503 29.0559C18.44 29.0385 18.5245 29.0995 18.5403 29.1887C18.5562 29.2782 18.4967 29.3632 18.4075 29.3792C18.3992 29.3807 17.559 29.5379 17.195 30.1598C16.9819 30.5239 16.9697 30.9846 17.1587 31.529C17.3526 32.0871 17.6809 32.4239 17.9933 32.6268C18.3905 32.3267 18.793 32.1226 19.1226 32.0367C19.7255 31.8807 19.9111 32.1582 19.9634 32.2849C20.0622 32.5239 20.037 32.7548 19.8925 32.9357C19.6717 33.2115 19.1923 33.3331 18.6694 33.2423C18.4401 33.2032 18.223 33.1298 18.0222 33.0268C17.2165 33.7045 16.4767 34.8068 16.6253 36.0685C16.7406 37.0484 17.2469 37.5423 17.6594 37.7854C17.8709 37.5695 18.0908 37.4031 18.295 37.2985C18.7625 37.0593 19.1639 37.1182 19.3697 37.4551C19.553 37.7556 19.4517 37.9721 19.3751 38.0742C19.1594 38.3624 18.6142 38.4578 18.0494 38.3057C17.9748 38.2859 17.8647 38.2509 17.7351 38.1935C17.1045 38.9492 16.6156 40.2137 17.1548 41.4957C17.5567 42.4512 18.3711 42.6946 18.9836 42.7309C19.2259 42.7446 19.4719 42.7276 19.7097 42.6876C19.7486 42.5234 19.7992 42.382 19.85 42.2649C20.1103 41.6674 20.6101 41.2204 21.0655 41.1773C21.2901 41.1562 21.4765 41.237 21.5909 41.4049C21.7169 41.5893 21.7183 41.8107 21.5953 42.0278C21.3801 42.4071 20.7495 42.794 19.9906 42.9684C19.9006 43.5945 20.0239 44.5159 20.9055 45.6628C21.4031 46.3103 21.9505 46.5996 22.5331 46.5214C23.2148 46.4306 23.8369 45.8684 24.2883 45.2612C24.1909 44.766 24.2272 44.3125 24.3214 43.9806C24.4769 43.4331 24.7983 43.1217 25.1208 43.2031C25.1922 43.2214 25.3597 43.2939 25.3744 43.5729C25.3944 43.9596 25.1095 44.6728 24.6417 45.3359C24.8739 46.2539 25.6387 47.3054 27.5151 47.8934C29.4064 48.4867 30.4455 47.6679 30.897 47.1268C30.9172 47.1024 30.9372 47.0781 30.9565 47.0531C30.4936 46.4485 30.3069 45.8139 30.3259 45.3379C30.3495 44.7429 30.6692 44.3459 31.1605 44.301C31.4305 44.277 31.6519 44.4043 31.7858 44.66C32.0523 45.1682 31.9326 46.191 31.368 47.0439C31.9353 47.6828 32.8719 48.2639 34.2867 48.5067C36.4039 48.872 37.61 47.461 38.0303 46.8385C38.1519 46.6579 38.2565 46.4748 38.3447 46.2943C37.895 45.6334 37.6847 44.9649 37.83 44.5615C37.9078 44.3457 38.0819 44.2096 38.3201 44.1782C38.5653 44.1465 38.7667 44.2385 38.8898 44.4381C39.1237 44.8165 39.0448 45.5264 38.7228 46.261C38.825 46.3981 38.9395 46.5362 39.0669 46.6732C39.5959 47.2415 41.0375 48.5056 43.0005 47.9542C44.7644 47.459 45.6212 45.9445 45.8537 44.6489C45.1462 44.1489 44.6826 43.5632 44.5973 43.109C44.5242 42.719 44.7214 42.4268 45.1247 42.3271C45.6051 42.2092 45.9905 42.5173 46.158 43.1528C46.253 43.5123 46.2736 43.9796 46.2047 44.4879C47.0887 45.069 48.3519 45.521 49.7623 45.3375C50.9834 45.1793 51.4975 44.0773 51.7136 43.1809C51.8558 42.5904 51.8981 41.9582 51.867 41.3695C51.0226 40.7762 50.4053 40.0042 50.2905 39.4832C50.2065 39.1021 50.3819 38.9159 50.4937 38.8389C50.7637 38.6524 51.0522 38.6467 51.3061 38.8209C51.784 39.149 52.104 40.1054 52.1845 41.1898C52.6734 41.5103 53.2314 41.7635 53.7922 41.8601C54.8839 42.0471 55.755 41.6324 56.3822 40.626C57.4444 38.922 56.9423 37.6064 56.4936 36.9223C56.1095 36.9335 55.7542 36.8818 55.4484 36.7803C54.8758 36.5901 54.5197 36.234 54.4958 35.8278C54.4847 35.641 54.5689 35.4984 54.7269 35.4359C55.1337 35.2759 55.9408 35.7137 56.5255 36.4148C56.5673 36.4648 56.6128 36.5223 56.6601 36.587C57.5744 36.5145 58.635 36.059 59.487 35.0474C60.5701 33.7614 59.9586 31.9842 59.0687 30.8876C58.7919 31.0454 58.5437 31.0868 58.3872 31.0939C57.8795 31.1143 57.3945 30.8556 57.2337 30.4714C57.1273 30.2164 57.1855 29.9598 57.3936 29.7678C57.7167 29.4692 58.3062 29.6565 58.9322 30.2543C58.9967 30.3162 59.0616 30.3823 59.1262 30.4524C59.4848 30.1526 59.7865 29.6468 59.9972 28.9729C60.5508 27.2018 59.354 25.7939 58.2076 25.2396C58.0967 25.6085 57.879 25.8499 57.7331 25.9779C57.2673 26.3871 56.5861 26.502 56.2144 26.2335C56.088 26.1421 55.8198 25.8685 56.0611 25.2984C56.3211 24.6839 57.0545 24.4854 57.9453 24.7792C57.9514 24.4279 57.8411 24.0306 57.6131 23.6095C56.8589 22.2149 55.6033 21.7926 54.6503 21.8096C54.6359 21.9279 54.6095 22.0467 54.5709 22.1649C54.3876 22.7262 53.9686 23.1403 53.5747 23.1493C53.3289 23.1484 53.1322 23.0021 53.0294 22.7301C52.8762 22.3251 53.1015 21.927 53.6173 21.6914C53.8253 21.596 54.0676 21.53 54.3309 21.4979C54.3086 21.125 54.1401 20.6551 53.5775 20.2237C51.7976 18.859 50.092 20.4662 50.0203 20.5354C49.9551 20.5979 49.8512 20.5964 49.7881 20.5309C49.7253 20.4657 49.727 20.3618 49.7922 20.299C49.8117 20.2798 51.7715 18.4251 53.7773 19.9632C54.3169 20.3767 54.6225 20.9132 54.6597 21.476C55.7675 21.4581 57.1242 22.0148 57.902 23.4529C58.2209 24.0428 58.3048 24.5245 58.2711 24.9068C59.555 25.4906 60.9361 27.0692 60.3105 29.071C60.0466 29.9159 59.6862 30.411 59.3389 30.6996C60.2615 31.8459 60.9958 33.7654 59.7381 35.259C58.8789 36.2792 57.814 36.7728 56.8628 36.8937C57.327 37.6798 57.7461 39.0585 56.6608 40.7998C55.7828 42.2084 54.5859 42.3293 53.7364 42.1837C53.1992 42.0914 52.6748 41.8723 52.203 41.5884C52.2136 42.149 52.1603 42.7273 52.0325 43.2578C51.6928 44.6667 50.9014 45.521 49.8039 45.6632C48.407 45.8442 47.0998 45.4301 46.1431 44.8403C45.8542 46.2101 44.9278 47.7543 43.0889 48.2704C40.9523 48.8706 39.3961 47.5096 38.8261 46.8968C38.7328 46.7968 38.6447 46.6942 38.5623 46.5906C38.4845 46.7362 38.3976 46.8809 38.302 47.0223C37.8981 47.622 36.8201 48.8946 34.9683 48.895ZM31.227 44.6262C31.2144 44.6262 31.202 44.6271 31.1906 44.6281C30.8717 44.657 30.6712 44.9273 30.6544 45.351C30.6386 45.7465 30.787 46.2654 31.1515 46.7731C31.5978 46.0476 31.7039 45.2101 31.4951 44.8121C31.413 44.6553 31.3089 44.6262 31.227 44.6262ZM38.4147 44.5004C38.3983 44.5004 38.3812 44.5014 38.363 44.504C38.2462 44.519 38.1751 44.5729 38.139 44.6728C38.0508 44.9181 38.1722 45.397 38.5005 45.9332C38.719 45.3504 38.7525 44.8403 38.6106 44.6106C38.5645 44.5354 38.5028 44.5004 38.4147 44.5004ZM25.0181 43.5139C24.9258 43.5139 24.7451 43.6924 24.638 44.0703C24.5775 44.2832 24.5447 44.5526 24.565 44.8518C24.7017 44.6276 24.8115 44.4106 24.8892 44.222C25.0878 43.7396 25.0517 43.5417 25.0311 43.5154C25.027 43.5145 25.0225 43.5139 25.0181 43.5139ZM45.3147 42.6315C45.2797 42.6315 45.2428 42.636 45.2039 42.6456C44.9665 42.7043 44.8792 42.8284 44.9205 43.0481C44.9808 43.3689 45.3376 43.8396 45.9047 44.2742C45.9403 43.8806 45.9161 43.5214 45.8406 43.236C45.7786 43.0001 45.6305 42.6315 45.3147 42.6315ZM21.1348 41.5023C21.1228 41.5023 21.1101 41.5029 21.0967 41.5042C20.8083 41.531 20.3909 41.8464 20.1515 42.3957C20.1244 42.4582 20.0975 42.5285 20.073 42.6065C20.6623 42.4432 21.1494 42.1489 21.31 41.8656C21.3906 41.7232 21.3544 41.6398 21.3201 41.5895C21.3047 41.5671 21.2605 41.5023 21.1348 41.5023ZM50.9189 39.0224C50.8428 39.0224 50.7642 39.0514 50.6805 39.109C50.6514 39.1289 50.5626 39.1901 50.6115 39.4121C50.7037 39.831 51.1773 40.4307 51.8306 40.9368C51.7259 40.0478 51.454 39.3204 51.1206 39.0914C51.0536 39.0456 50.9872 39.0224 50.9189 39.0224ZM17.9751 37.9368C18.0387 37.9606 18.0933 37.9773 18.135 37.9885C18.6008 38.115 18.998 38.0306 19.1125 37.8776C19.1303 37.8539 19.1844 37.7817 19.0895 37.6265C18.9415 37.384 18.622 37.5001 18.4447 37.5909C18.2948 37.6674 18.134 37.7851 17.9751 37.9368ZM54.9205 35.7296C54.8912 35.7296 54.8669 35.7335 54.8483 35.7409C54.8353 35.746 54.8206 35.7518 54.824 35.8082C54.8395 36.0715 55.1186 36.3243 55.5523 36.4682C55.7606 36.5375 55.9953 36.5804 56.247 36.5931C55.7292 35.9865 55.1603 35.7296 54.9205 35.7296ZM18.3187 32.7982C18.4933 32.871 18.6406 32.9045 18.7253 32.9189C19.1184 32.9865 19.4934 32.9092 19.6361 32.7306C19.7053 32.644 19.7133 32.5395 19.6601 32.4109C19.5998 32.2649 19.2972 32.331 19.2053 32.3548C18.9483 32.4217 18.6361 32.5746 18.3187 32.7982ZM57.7762 29.955C57.7105 29.955 57.6562 29.9723 57.617 30.0085C57.5117 30.1057 57.4848 30.2185 57.5373 30.3443C57.6289 30.5634 57.96 30.7904 58.3725 30.7654C58.538 30.7578 58.6978 30.7142 58.85 30.6365C58.8023 30.5862 58.754 30.5378 58.7058 30.4915C58.3519 30.1532 57.9984 29.955 57.7762 29.955ZM57.1781 24.976C56.8225 24.976 56.5037 25.096 56.364 25.426C56.2887 25.6043 56.235 25.8426 56.4072 25.9671C56.6256 26.1249 57.1347 26.0665 57.5169 25.731C57.7108 25.5607 57.8392 25.351 57.9017 25.1107C57.6725 25.0299 57.4169 24.976 57.1781 24.976ZM54.3142 21.8356C54.0978 21.8657 53.9069 21.9199 53.7545 21.9895C53.5872 22.0662 53.2112 22.2801 53.3372 22.6135C53.4165 22.8235 53.5319 22.8249 53.5676 22.8204C53.7828 22.8156 54.1086 22.5243 54.2594 22.0626C54.2787 22.0029 54.2995 21.926 54.3142 21.8356Z" fill="#241726"/>
<path d="M34.6836 71.8096L40.2011 71.3818L40.0186 72.9589L35.3792 73.3142L34.6836 71.8096Z" fill="white"/>
<path d="M40.3203 71.2682C40.2862 71.2329 40.2375 71.2137 40.1892 71.2185L34.6719 71.6463C34.6183 71.6502 34.57 71.6804 34.543 71.7268C34.5158 71.7734 34.513 71.8301 34.5355 71.8788L35.2311 73.3834C35.258 73.4418 35.3164 73.4787 35.3802 73.4787C35.3844 73.4787 35.3884 73.4787 35.3927 73.4784L36.4253 73.3991C36.6517 75.1218 30.4052 75.4079 34.3648 76.2132C37.9637 76.9452 38.0712 74.2798 38.0362 73.5587L38.1981 75.6154L39.4994 75.2285L39.148 73.1904L40.032 73.1226C40.1105 73.1168 40.1736 73.0559 40.1827 72.9779L40.3652 71.4009C40.3706 71.3523 40.3542 71.3034 40.3203 71.2682ZM39.8719 72.8057L35.4812 73.1418L34.9327 71.9554L40.0159 71.5612L39.8719 72.8057Z" fill="#241726"/>
<path d="M42.1953 70.9238L47.7591 71.1488L47.3419 72.7771L42.1953 72.959V70.9238Z" fill="white"/>
<path d="M46.1559 72.9833L47.3477 72.9412C47.4205 72.9387 47.4828 72.8882 47.5009 72.8177L47.9183 71.1894C47.9306 71.1413 47.9205 71.0904 47.8911 71.0505C47.8614 71.0107 47.8155 70.9866 47.7659 70.9844L42.202 70.7593C42.1614 70.7605 42.1141 70.774 42.0817 70.8051C42.0495 70.8358 42.0312 70.8788 42.0312 70.9233V72.9587C42.0312 73.0032 42.0494 73.0458 42.0814 73.0766C42.112 73.1065 42.153 73.1229 42.1955 73.1229C42.1973 73.1229 42.1994 73.1229 42.2012 73.1229L43.3987 73.0805L43.0627 75.228L44.3639 75.6149L44.5258 73.5582C44.4909 74.2793 44.5983 76.9447 48.1972 76.2127C52.2211 75.3946 45.785 75.0044 46.1559 72.9833ZM42.3594 71.0944L47.5497 71.3046L47.2133 72.6172L42.3594 72.7888V71.0944Z" fill="#241726"/>
</g>
<defs>
<clipPath id="clip0_4001_2206">
<rect width="80" height="80" fill="white" transform="translate(0.666016)"/>
</clipPath>
</defs>
</svg>
